<?xml version="1.0" encoding="utf-8"?>
<!-- Generator: Adobe Illustrator 25.2.0, SVG Export Plug-In . SVG Version: 6.00 Build 0)  -->
<svg version="1.1" id="レイヤー_1" xmlns="http://www.w3.org/2000/svg" xmlns:xlink="http://www.w3.org/1999/xlink" x="0px"
	 y="0px" width="125px" height="30px" viewBox="0 0 125 30" style="enable-background:new 0 0 125 30;" xml:space="preserve">
<style type="text/css">
	.st0{fill:#FFFFFF;}
	.st1{fill:#FF346E;}
	.st2{fill:#F3836F;}
	.st3{fill:#EECB48;}
	.st4{fill:#31AB8E;}
</style>
<g>
	<path class="st0" d="M19.08,26.09H5.87V15.88h10.46c0.43,0,0.79-0.35,0.79-0.79c0-0.43-0.35-0.79-0.79-0.79H5.87V4.05h12.42
		c0.43,0,0.79-0.35,0.79-0.79c0-0.43-0.35-0.79-0.79-0.79H5.08c-0.43,0-0.79,0.35-0.79,0.79v23.62c0,0.43,0.35,0.79,0.79,0.79h13.99
		c0.43,0,0.79-0.35,0.79-0.79C19.86,26.45,19.51,26.09,19.08,26.09z"/>
	<g>
		<path class="st0" d="M34.2,28.97c-0.32,0-0.63-0.01-0.95-0.03c-0.31-0.02-0.62-0.05-0.93-0.09c-0.31-0.04-0.61-0.09-0.91-0.15
			c-0.3-0.06-0.6-0.13-0.89-0.21c-0.29-0.08-0.58-0.17-0.87-0.27c-0.28-0.1-0.57-0.21-0.84-0.32c-0.27-0.11-0.55-0.24-0.82-0.37
			c-0.27-0.13-0.53-0.27-0.79-0.42c-0.26-0.15-0.53-0.32-0.78-0.49c-0.25-0.17-0.5-0.35-0.74-0.53c-0.24-0.18-0.48-0.38-0.71-0.58
			c-0.23-0.2-0.45-0.41-0.67-0.62c-0.22-0.22-0.43-0.44-0.62-0.67c-0.2-0.23-0.4-0.47-0.58-0.71c-0.19-0.24-0.37-0.49-0.53-0.74
			c-0.17-0.25-0.33-0.52-0.49-0.78c-0.15-0.26-0.29-0.52-0.42-0.79c-0.13-0.27-0.26-0.54-0.37-0.82c-0.12-0.28-0.22-0.56-0.32-0.84
			c-0.1-0.29-0.19-0.58-0.27-0.87c-0.08-0.29-0.15-0.59-0.21-0.89c-0.06-0.3-0.11-0.61-0.15-0.91c-0.04-0.31-0.07-0.62-0.09-0.93
			c-0.02-0.31-0.03-0.63-0.03-0.95s0.01-0.63,0.03-0.95c0.02-0.31,0.05-0.62,0.09-0.93c0.04-0.31,0.09-0.61,0.15-0.91
			c0.06-0.3,0.13-0.6,0.21-0.89c0.08-0.29,0.17-0.58,0.27-0.87c0.1-0.28,0.21-0.57,0.32-0.84c0.11-0.28,0.24-0.55,0.37-0.82
			c0.13-0.27,0.27-0.53,0.42-0.79c0.15-0.26,0.32-0.53,0.49-0.78c0.17-0.25,0.35-0.5,0.53-0.74c0.18-0.24,0.38-0.48,0.58-0.71
			c0.2-0.23,0.41-0.45,0.62-0.67c0.21-0.21,0.44-0.42,0.67-0.62c0.23-0.2,0.47-0.4,0.71-0.58c0.24-0.19,0.49-0.37,0.74-0.53
			c0.25-0.17,0.52-0.33,0.78-0.49c0.26-0.15,0.52-0.29,0.79-0.42c0.27-0.13,0.54-0.26,0.82-0.37c0.28-0.12,0.56-0.22,0.84-0.32
			c0.29-0.1,0.58-0.19,0.87-0.27c0.29-0.08,0.59-0.15,0.89-0.21c0.3-0.06,0.61-0.11,0.91-0.15c0.31-0.04,0.62-0.07,0.93-0.09
			c0.63-0.04,1.27-0.04,1.9,0c0.31,0.02,0.62,0.05,0.93,0.09c0.3,0.04,0.61,0.09,0.91,0.15c0.3,0.06,0.6,0.13,0.89,0.21
			c0.29,0.08,0.58,0.17,0.87,0.27c0.28,0.1,0.57,0.2,0.84,0.32c0.29,0.12,0.43,0.46,0.31,0.75c-0.12,0.29-0.46,0.43-0.75,0.31
			c-0.25-0.11-0.51-0.21-0.77-0.29c-0.26-0.09-0.53-0.17-0.8-0.24c-0.27-0.07-0.54-0.14-0.82-0.19c-0.28-0.06-0.56-0.1-0.84-0.14
			c-0.28-0.04-0.57-0.07-0.86-0.09c-0.58-0.04-1.17-0.04-1.74,0c-0.29,0.02-0.57,0.05-0.86,0.09c-0.28,0.04-0.56,0.08-0.84,0.14
			c-0.27,0.06-0.55,0.12-0.82,0.19c-0.27,0.07-0.53,0.15-0.8,0.24c-0.26,0.09-0.52,0.19-0.77,0.29C29,3.24,28.74,3.35,28.5,3.47
			c-0.24,0.12-0.49,0.25-0.72,0.39C27.53,4,27.29,4.15,27.06,4.31c-0.23,0.16-0.46,0.32-0.68,0.49c-0.22,0.17-0.44,0.35-0.65,0.53
			c-0.21,0.18-0.42,0.38-0.61,0.57c-0.2,0.2-0.39,0.4-0.57,0.61c-0.18,0.21-0.36,0.43-0.53,0.65c-0.17,0.22-0.34,0.45-0.49,0.68
			c-0.16,0.23-0.31,0.47-0.45,0.72c-0.14,0.24-0.27,0.48-0.39,0.72c-0.12,0.24-0.24,0.5-0.34,0.75c-0.11,0.25-0.2,0.51-0.29,0.77
			c-0.09,0.26-0.17,0.53-0.24,0.8c-0.07,0.27-0.14,0.55-0.19,0.82c-0.06,0.28-0.1,0.56-0.14,0.84c-0.04,0.28-0.07,0.57-0.09,0.86
			c-0.02,0.29-0.03,0.58-0.03,0.87s0.01,0.58,0.03,0.87c0.02,0.29,0.05,0.57,0.09,0.86c0.04,0.28,0.08,0.56,0.14,0.84
			c0.06,0.27,0.12,0.55,0.19,0.82c0.07,0.27,0.15,0.54,0.24,0.8c0.09,0.26,0.19,0.52,0.29,0.77c0.11,0.25,0.22,0.5,0.34,0.75
			c0.12,0.24,0.25,0.49,0.39,0.72c0.14,0.24,0.29,0.48,0.45,0.72c0.15,0.23,0.32,0.46,0.49,0.68c0.17,0.22,0.35,0.44,0.53,0.65
			c0.18,0.21,0.38,0.41,0.57,0.61c0.2,0.2,0.4,0.39,0.61,0.57c0.21,0.18,0.43,0.36,0.65,0.53c0.22,0.17,0.45,0.34,0.68,0.49
			c0.23,0.16,0.47,0.31,0.72,0.45c0.24,0.14,0.48,0.27,0.72,0.39c0.24,0.12,0.5,0.24,0.75,0.34c0.25,0.11,0.51,0.2,0.77,0.29
			c0.26,0.09,0.53,0.17,0.8,0.24c0.27,0.07,0.54,0.14,0.82,0.19c0.28,0.06,0.56,0.1,0.84,0.14c0.28,0.04,0.57,0.07,0.86,0.09
			c0.58,0.04,1.17,0.04,1.74,0c0.29-0.02,0.57-0.05,0.86-0.09c0.28-0.04,0.56-0.08,0.84-0.14c0.27-0.06,0.55-0.12,0.82-0.19
			c0.27-0.07,0.54-0.15,0.8-0.24c0.26-0.09,0.52-0.19,0.77-0.29c0.25-0.11,0.5-0.22,0.75-0.34c0.24-0.12,0.49-0.25,0.72-0.39
			c0.24-0.14,0.48-0.29,0.72-0.45c0.23-0.16,0.46-0.32,0.68-0.49c0.22-0.17,0.44-0.35,0.65-0.53c0.21-0.18,0.42-0.38,0.61-0.57
			c0.2-0.2,0.39-0.4,0.57-0.61c0.18-0.21,0.36-0.43,0.53-0.65c0.17-0.22,0.33-0.45,0.49-0.68c0.16-0.23,0.31-0.47,0.45-0.72
			c0.14-0.24,0.27-0.48,0.39-0.72c0.12-0.24,0.24-0.5,0.34-0.75c0.11-0.25,0.21-0.51,0.29-0.77c0.09-0.26,0.17-0.53,0.24-0.8
			c0.07-0.27,0.14-0.55,0.19-0.82c0.06-0.28,0.1-0.56,0.14-0.84c0.04-0.28,0.07-0.57,0.09-0.86c0.02-0.29,0.03-0.58,0.03-0.87
			s-0.01-0.58-0.03-0.87c-0.02-0.29-0.05-0.57-0.09-0.86c-0.04-0.28-0.08-0.56-0.14-0.84c-0.06-0.27-0.12-0.55-0.19-0.82
			c-0.07-0.27-0.15-0.53-0.24-0.8c-0.09-0.26-0.19-0.52-0.29-0.77c-0.11-0.25-0.22-0.5-0.34-0.75C45.57,9,45.69,8.66,45.97,8.52
			c0.28-0.14,0.63-0.02,0.77,0.26c0.13,0.27,0.26,0.54,0.37,0.82c0.11,0.28,0.22,0.56,0.32,0.84c0.1,0.29,0.19,0.58,0.27,0.87
			c0.08,0.29,0.15,0.59,0.21,0.89c0.06,0.3,0.11,0.61,0.15,0.91c0.04,0.31,0.07,0.62,0.09,0.93c0.02,0.31,0.03,0.63,0.03,0.95
			s-0.01,0.63-0.03,0.95c-0.02,0.31-0.05,0.62-0.09,0.93c-0.04,0.31-0.09,0.61-0.15,0.91c-0.06,0.3-0.13,0.6-0.21,0.89
			c-0.08,0.29-0.17,0.58-0.27,0.87c-0.1,0.28-0.2,0.57-0.32,0.84c-0.11,0.27-0.24,0.55-0.37,0.82c-0.13,0.27-0.27,0.53-0.42,0.79
			c-0.15,0.26-0.32,0.53-0.49,0.78c-0.17,0.25-0.35,0.5-0.53,0.74c-0.19,0.24-0.38,0.48-0.58,0.71c-0.2,0.23-0.41,0.45-0.62,0.67
			c-0.21,0.21-0.44,0.42-0.67,0.62c-0.23,0.2-0.47,0.4-0.71,0.58c-0.24,0.19-0.49,0.37-0.74,0.53c-0.25,0.17-0.52,0.33-0.78,0.49
			c-0.26,0.15-0.52,0.29-0.79,0.42c-0.27,0.13-0.54,0.26-0.82,0.37c-0.28,0.12-0.56,0.22-0.84,0.32c-0.29,0.1-0.58,0.19-0.87,0.27
			c-0.29,0.08-0.59,0.15-0.89,0.21c-0.3,0.06-0.61,0.11-0.91,0.15c-0.31,0.04-0.62,0.07-0.93,0.09
			C34.83,28.96,34.52,28.97,34.2,28.97z"/>
	</g>
	<g>
		<path class="st1" d="M34.2,27.1c-0.32,0-0.57-0.26-0.57-0.57s0.26-0.57,0.57-0.57c0.25,0,0.5-0.01,0.74-0.02
			c0.24-0.02,0.49-0.04,0.73-0.07c0.24-0.03,0.48-0.07,0.72-0.12c0.23-0.05,0.47-0.1,0.7-0.17c0.23-0.06,0.46-0.13,0.68-0.21
			c0.22-0.08,0.44-0.16,0.66-0.25c0.22-0.09,0.43-0.19,0.64-0.29c0.21-0.1,0.42-0.21,0.62-0.33c0.21-0.12,0.41-0.25,0.61-0.38
			c0.2-0.13,0.39-0.27,0.58-0.42c0.19-0.14,0.38-0.3,0.55-0.46c0.18-0.16,0.36-0.32,0.52-0.49c0.17-0.17,0.33-0.34,0.49-0.52
			c0.16-0.18,0.31-0.37,0.46-0.55c0.15-0.19,0.29-0.39,0.42-0.58c0.13-0.2,0.26-0.4,0.38-0.61c0.12-0.2,0.23-0.41,0.33-0.62
			c0.1-0.21,0.2-0.42,0.29-0.64c0.09-0.22,0.18-0.44,0.25-0.66c0.08-0.22,0.15-0.45,0.21-0.68c0.06-0.23,0.12-0.46,0.17-0.7
			c0.05-0.23,0.09-0.48,0.12-0.72c0.03-0.24,0.06-0.49,0.07-0.73c0.02-0.25,0.02-0.5,0.02-0.74s-0.01-0.5-0.02-0.74
			c-0.02-0.24-0.04-0.49-0.07-0.73c-0.03-0.24-0.07-0.48-0.12-0.72c-0.05-0.23-0.1-0.47-0.17-0.7c-0.06-0.23-0.13-0.46-0.21-0.68
			c-0.08-0.22-0.16-0.44-0.25-0.66c-0.09-0.22-0.19-0.43-0.29-0.64c-0.1-0.21-0.21-0.42-0.33-0.62c-0.12-0.21-0.25-0.41-0.38-0.61
			c-0.13-0.2-0.27-0.39-0.42-0.58c-0.15-0.19-0.3-0.38-0.46-0.55c-0.16-0.18-0.32-0.35-0.49-0.52c-0.17-0.17-0.34-0.33-0.52-0.49
			c-0.18-0.16-0.37-0.31-0.55-0.46C40.69,6.14,40.5,6,40.3,5.86c-0.2-0.13-0.4-0.26-0.61-0.38c-0.2-0.12-0.41-0.23-0.62-0.33
			c-0.21-0.1-0.42-0.2-0.64-0.29c-0.22-0.09-0.44-0.17-0.66-0.25c-0.22-0.08-0.45-0.15-0.68-0.21c-0.23-0.06-0.46-0.12-0.7-0.17
			c-0.24-0.05-0.48-0.09-0.72-0.12c-0.24-0.03-0.49-0.06-0.73-0.07c-0.49-0.03-1-0.03-1.49,0c-0.24,0.02-0.49,0.04-0.73,0.07
			c-0.24,0.03-0.48,0.07-0.72,0.12c-0.23,0.05-0.47,0.1-0.7,0.17c-0.23,0.06-0.46,0.13-0.68,0.21c-0.22,0.08-0.44,0.16-0.66,0.25
			c-0.22,0.09-0.43,0.19-0.64,0.29c-0.21,0.1-0.42,0.21-0.62,0.33C28.51,5.6,28.3,5.73,28.1,5.86C27.9,6,27.71,6.14,27.52,6.28
			c-0.19,0.15-0.38,0.3-0.55,0.46c-0.18,0.16-0.36,0.32-0.52,0.49c-0.17,0.17-0.33,0.34-0.49,0.52c-0.16,0.18-0.31,0.37-0.46,0.55
			c-0.15,0.19-0.29,0.39-0.42,0.58c-0.13,0.2-0.26,0.4-0.38,0.61c-0.12,0.2-0.23,0.41-0.33,0.62c-0.1,0.21-0.2,0.42-0.29,0.64
			c-0.09,0.22-0.17,0.44-0.25,0.66c-0.08,0.22-0.15,0.45-0.21,0.68c-0.06,0.23-0.12,0.47-0.17,0.7c-0.05,0.23-0.09,0.48-0.12,0.72
			c-0.03,0.24-0.06,0.49-0.07,0.73c-0.02,0.25-0.02,0.5-0.02,0.74s0.01,0.5,0.02,0.74c0.02,0.24,0.04,0.49,0.07,0.73
			c0.03,0.24,0.07,0.48,0.12,0.72c0.05,0.23,0.1,0.47,0.17,0.7c0.06,0.23,0.13,0.46,0.21,0.68c0.08,0.22,0.16,0.44,0.25,0.66
			c0.09,0.22,0.19,0.43,0.29,0.64c0.14,0.28,0.02,0.63-0.26,0.77c-0.28,0.14-0.63,0.02-0.77-0.26c-0.11-0.23-0.22-0.47-0.32-0.71
			c-0.1-0.24-0.19-0.48-0.28-0.73c-0.08-0.25-0.16-0.5-0.23-0.75c-0.07-0.26-0.13-0.51-0.18-0.77c-0.05-0.26-0.1-0.52-0.13-0.79
			c-0.04-0.27-0.06-0.54-0.08-0.81c-0.02-0.27-0.03-0.55-0.03-0.82c0-0.27,0.01-0.55,0.03-0.82c0.02-0.27,0.05-0.54,0.08-0.81
			c0.04-0.27,0.08-0.53,0.13-0.79c0.05-0.26,0.11-0.52,0.18-0.77c0.07-0.25,0.15-0.51,0.23-0.75c0.08-0.25,0.18-0.49,0.28-0.73
			c0.1-0.24,0.21-0.48,0.32-0.71c0.11-0.23,0.24-0.46,0.37-0.68c0.13-0.23,0.27-0.46,0.42-0.68c0.15-0.22,0.3-0.44,0.46-0.64
			c0.16-0.21,0.33-0.41,0.5-0.61c0.17-0.2,0.36-0.39,0.54-0.58c0.18-0.18,0.38-0.37,0.58-0.54c0.2-0.17,0.4-0.34,0.61-0.5
			c0.21-0.16,0.43-0.32,0.64-0.46c0.22-0.15,0.45-0.29,0.68-0.42c0.22-0.13,0.45-0.25,0.68-0.37c0.23-0.11,0.47-0.22,0.71-0.32
			c0.24-0.1,0.48-0.19,0.73-0.28c0.25-0.08,0.5-0.16,0.75-0.23c0.25-0.07,0.51-0.13,0.77-0.18c0.26-0.05,0.53-0.1,0.79-0.13
			c0.27-0.04,0.54-0.06,0.81-0.08c0.54-0.04,1.1-0.04,1.64,0c0.27,0.02,0.54,0.05,0.81,0.08c0.26,0.04,0.53,0.08,0.79,0.13
			c0.26,0.05,0.52,0.11,0.77,0.18c0.25,0.07,0.5,0.15,0.75,0.23c0.25,0.08,0.49,0.18,0.73,0.28c0.24,0.1,0.48,0.21,0.71,0.32
			c0.23,0.11,0.46,0.24,0.68,0.37c0.23,0.13,0.46,0.27,0.68,0.42c0.22,0.15,0.44,0.3,0.64,0.46c0.21,0.16,0.41,0.33,0.61,0.5
			c0.2,0.17,0.39,0.36,0.58,0.54C42.95,6.6,43.14,6.8,43.31,7c0.17,0.2,0.34,0.4,0.5,0.61c0.16,0.21,0.32,0.43,0.46,0.64
			c0.15,0.22,0.29,0.45,0.42,0.68c0.13,0.22,0.25,0.45,0.37,0.68c0.11,0.23,0.22,0.47,0.32,0.71c0.1,0.24,0.19,0.48,0.28,0.73
			c0.08,0.25,0.16,0.5,0.23,0.75c0.07,0.26,0.13,0.51,0.18,0.77c0.05,0.26,0.1,0.53,0.13,0.79c0.04,0.27,0.06,0.54,0.08,0.81
			c0.02,0.27,0.03,0.55,0.03,0.82s-0.01,0.55-0.03,0.82c-0.02,0.27-0.05,0.54-0.08,0.81c-0.04,0.27-0.08,0.53-0.13,0.79
			c-0.05,0.26-0.11,0.52-0.18,0.77c-0.07,0.25-0.15,0.51-0.23,0.75c-0.08,0.24-0.18,0.49-0.28,0.73c-0.1,0.24-0.21,0.48-0.32,0.71
			c-0.11,0.23-0.24,0.46-0.37,0.68c-0.13,0.23-0.27,0.46-0.42,0.68c-0.15,0.22-0.3,0.44-0.46,0.64c-0.16,0.21-0.33,0.41-0.5,0.61
			c-0.17,0.2-0.36,0.39-0.54,0.58c-0.19,0.19-0.38,0.37-0.58,0.54c-0.2,0.17-0.4,0.34-0.61,0.5c-0.21,0.16-0.43,0.32-0.64,0.46
			c-0.22,0.15-0.45,0.29-0.68,0.42c-0.22,0.13-0.45,0.25-0.68,0.37c-0.23,0.11-0.47,0.22-0.71,0.32c-0.24,0.1-0.48,0.19-0.73,0.28
			c-0.25,0.08-0.5,0.16-0.75,0.23c-0.25,0.07-0.51,0.13-0.77,0.18c-0.26,0.05-0.53,0.1-0.79,0.13c-0.27,0.04-0.54,0.06-0.81,0.08
			C34.75,27.09,34.47,27.1,34.2,27.1z"/>
	</g>
	<g>
		<path class="st2" d="M34.2,25.23c-0.23,0-0.46-0.01-0.69-0.02c-0.23-0.02-0.46-0.04-0.68-0.07c-0.22-0.03-0.45-0.07-0.67-0.11
			c-0.22-0.04-0.44-0.1-0.65-0.15c-0.21-0.06-0.43-0.12-0.64-0.2c-0.21-0.07-0.42-0.15-0.62-0.23c-0.2-0.08-0.4-0.18-0.6-0.27
			c-0.19-0.1-0.39-0.2-0.58-0.31c-0.19-0.11-0.39-0.23-0.57-0.36c-0.19-0.12-0.37-0.26-0.54-0.39c-0.18-0.13-0.35-0.28-0.52-0.42
			c-0.17-0.15-0.33-0.3-0.49-0.46c-0.16-0.16-0.31-0.32-0.46-0.49c-0.15-0.17-0.29-0.34-0.43-0.52c-0.13-0.18-0.27-0.36-0.39-0.54
			c-0.12-0.19-0.24-0.38-0.36-0.57c-0.11-0.19-0.21-0.38-0.31-0.58c-0.1-0.2-0.19-0.4-0.27-0.6c-0.08-0.2-0.16-0.41-0.23-0.62
			c-0.07-0.21-0.14-0.42-0.2-0.64c-0.06-0.22-0.11-0.43-0.15-0.65c-0.04-0.22-0.08-0.45-0.11-0.67c-0.03-0.22-0.05-0.45-0.07-0.68
			c-0.02-0.23-0.02-0.46-0.02-0.69s0.01-0.46,0.02-0.69c0.02-0.23,0.04-0.46,0.07-0.68c0.03-0.22,0.07-0.45,0.11-0.67
			c0.04-0.22,0.1-0.44,0.15-0.65c0.08-0.3,0.4-0.48,0.7-0.4c0.31,0.08,0.49,0.4,0.4,0.7c-0.05,0.19-0.1,0.39-0.14,0.58
			c-0.04,0.2-0.07,0.4-0.1,0.59c-0.03,0.2-0.05,0.4-0.06,0.61c-0.01,0.2-0.02,0.41-0.02,0.62c0,0.21,0.01,0.41,0.02,0.62
			c0.01,0.2,0.03,0.41,0.06,0.61c0.03,0.2,0.06,0.4,0.1,0.59c0.04,0.19,0.09,0.39,0.14,0.58c0.05,0.19,0.11,0.38,0.17,0.56
			c0.06,0.18,0.13,0.37,0.21,0.55c0.07,0.18,0.16,0.36,0.24,0.53c0.09,0.17,0.18,0.35,0.27,0.51c0.1,0.17,0.21,0.34,0.32,0.51
			c0.11,0.16,0.23,0.33,0.35,0.48c0.12,0.16,0.25,0.31,0.38,0.46c0.13,0.15,0.27,0.29,0.41,0.43c0.14,0.14,0.29,0.28,0.43,0.41
			c0.15,0.13,0.3,0.26,0.46,0.38c0.16,0.12,0.32,0.24,0.48,0.35c0.16,0.11,0.33,0.22,0.51,0.32c0.17,0.1,0.34,0.19,0.51,0.27
			c0.17,0.09,0.35,0.17,0.53,0.24c0.18,0.07,0.36,0.14,0.55,0.21c0.19,0.06,0.38,0.12,0.56,0.17c0.19,0.05,0.39,0.1,0.58,0.14
			c0.2,0.04,0.4,0.07,0.59,0.1c0.2,0.03,0.4,0.05,0.61,0.06c0.41,0.03,0.83,0.03,1.23,0c0.2-0.01,0.41-0.03,0.61-0.06
			c0.2-0.03,0.4-0.06,0.59-0.1c0.19-0.04,0.39-0.09,0.58-0.14c0.19-0.05,0.38-0.11,0.56-0.17c0.18-0.06,0.37-0.13,0.55-0.21
			c0.18-0.07,0.36-0.16,0.53-0.24c0.17-0.09,0.34-0.18,0.51-0.27c0.17-0.1,0.34-0.21,0.51-0.32c0.16-0.11,0.33-0.23,0.48-0.35
			c0.16-0.12,0.31-0.25,0.46-0.38c0.15-0.13,0.29-0.27,0.43-0.41c0.14-0.14,0.28-0.29,0.41-0.43c0.13-0.15,0.26-0.3,0.38-0.46
			c0.12-0.16,0.24-0.32,0.35-0.48c0.11-0.17,0.22-0.34,0.32-0.51c0.1-0.17,0.19-0.34,0.27-0.51c0.09-0.17,0.17-0.35,0.24-0.53
			c0.08-0.18,0.15-0.36,0.21-0.55c0.06-0.19,0.12-0.38,0.17-0.56c0.05-0.19,0.1-0.38,0.14-0.58c0.04-0.19,0.07-0.39,0.1-0.59
			c0.03-0.2,0.05-0.4,0.06-0.61c0.01-0.2,0.02-0.41,0.02-0.62c0-0.21-0.01-0.41-0.02-0.62c-0.01-0.2-0.03-0.41-0.06-0.61
			c-0.03-0.2-0.06-0.4-0.1-0.59c-0.04-0.19-0.09-0.39-0.14-0.58c-0.05-0.19-0.11-0.38-0.17-0.56c-0.06-0.18-0.13-0.37-0.21-0.55
			c-0.07-0.18-0.16-0.36-0.24-0.53c-0.09-0.17-0.18-0.34-0.27-0.51c-0.1-0.17-0.2-0.34-0.32-0.51c-0.11-0.16-0.23-0.33-0.35-0.48
			c-0.12-0.16-0.25-0.31-0.38-0.46c-0.13-0.15-0.27-0.29-0.41-0.43c-0.14-0.14-0.28-0.28-0.43-0.41c-0.15-0.13-0.3-0.26-0.46-0.38
			c-0.16-0.12-0.32-0.24-0.48-0.35c-0.16-0.11-0.34-0.22-0.51-0.32c-0.17-0.1-0.34-0.19-0.51-0.27c-0.17-0.09-0.35-0.17-0.53-0.24
			c-0.18-0.07-0.36-0.14-0.55-0.21c-0.19-0.06-0.38-0.12-0.56-0.17c-0.19-0.05-0.39-0.1-0.58-0.14c-0.2-0.04-0.39-0.07-0.59-0.1
			c-0.2-0.03-0.4-0.05-0.61-0.06c-0.41-0.03-0.83-0.03-1.23,0c-0.2,0.01-0.41,0.03-0.61,0.06c-0.2,0.03-0.4,0.06-0.59,0.1
			c-0.19,0.04-0.39,0.09-0.58,0.14c-0.31,0.08-0.62-0.1-0.7-0.4c-0.08-0.3,0.1-0.62,0.4-0.7c0.21-0.06,0.43-0.11,0.65-0.15
			c0.22-0.04,0.44-0.08,0.67-0.11c0.23-0.03,0.45-0.05,0.68-0.07c0.46-0.03,0.93-0.03,1.39,0c0.23,0.02,0.46,0.04,0.68,0.07
			c0.22,0.03,0.45,0.07,0.67,0.11c0.22,0.04,0.44,0.1,0.65,0.15c0.21,0.06,0.43,0.12,0.64,0.2c0.21,0.07,0.42,0.15,0.62,0.23
			c0.2,0.08,0.4,0.18,0.6,0.27c0.19,0.1,0.39,0.2,0.58,0.31c0.19,0.11,0.39,0.23,0.57,0.36c0.18,0.12,0.37,0.25,0.54,0.39
			c0.18,0.14,0.35,0.28,0.52,0.43c0.17,0.15,0.33,0.3,0.49,0.46c0.16,0.16,0.31,0.32,0.46,0.49c0.15,0.17,0.29,0.34,0.43,0.52
			c0.14,0.18,0.27,0.36,0.39,0.54c0.12,0.19,0.24,0.38,0.36,0.57c0.11,0.19,0.21,0.38,0.31,0.58c0.1,0.2,0.19,0.4,0.27,0.6
			c0.08,0.2,0.16,0.41,0.23,0.62c0.07,0.21,0.14,0.42,0.2,0.64c0.06,0.22,0.11,0.43,0.15,0.65c0.04,0.22,0.08,0.45,0.11,0.67
			c0.03,0.22,0.05,0.45,0.07,0.68c0.02,0.23,0.02,0.46,0.02,0.69s-0.01,0.46-0.02,0.69c-0.02,0.23-0.04,0.46-0.07,0.68
			c-0.03,0.22-0.07,0.45-0.11,0.67c-0.04,0.22-0.1,0.44-0.15,0.65c-0.06,0.21-0.12,0.43-0.2,0.64c-0.07,0.21-0.15,0.41-0.23,0.62
			c-0.08,0.2-0.18,0.4-0.27,0.6c-0.1,0.2-0.2,0.39-0.31,0.58c-0.11,0.19-0.23,0.38-0.36,0.57c-0.12,0.18-0.26,0.37-0.39,0.54
			c-0.14,0.18-0.28,0.35-0.43,0.52c-0.15,0.17-0.3,0.33-0.46,0.49c-0.16,0.16-0.32,0.31-0.49,0.46c-0.17,0.15-0.34,0.29-0.52,0.42
			c-0.18,0.14-0.36,0.27-0.54,0.39c-0.19,0.12-0.38,0.24-0.57,0.36c-0.19,0.11-0.38,0.21-0.58,0.31c-0.2,0.1-0.4,0.19-0.6,0.27
			c-0.2,0.08-0.41,0.16-0.62,0.23c-0.21,0.07-0.42,0.14-0.64,0.2c-0.21,0.06-0.43,0.11-0.65,0.15c-0.22,0.04-0.45,0.08-0.67,0.11
			c-0.22,0.03-0.45,0.05-0.68,0.07C34.66,25.22,34.43,25.23,34.2,25.23z"/>
	</g>
	<g>
		<path class="st3" d="M34.2,23.36c-0.19,0-0.38-0.01-0.57-0.02c-0.19-0.01-0.37-0.03-0.56-0.06c-0.18-0.02-0.37-0.06-0.55-0.09
			c-0.18-0.04-0.36-0.08-0.53-0.13c-0.17-0.05-0.35-0.1-0.52-0.16c-0.17-0.06-0.34-0.12-0.5-0.19c-0.16-0.07-0.33-0.14-0.49-0.22
			c-0.16-0.08-0.32-0.16-0.47-0.25c-0.16-0.09-0.31-0.19-0.47-0.29c-0.15-0.1-0.3-0.21-0.45-0.32c-0.14-0.11-0.29-0.23-0.42-0.35
			c-0.14-0.12-0.27-0.25-0.4-0.37c-0.13-0.13-0.25-0.26-0.37-0.4c-0.12-0.14-0.24-0.28-0.35-0.42c-0.11-0.14-0.22-0.29-0.32-0.45
			c-0.1-0.15-0.2-0.31-0.29-0.47c-0.09-0.15-0.17-0.31-0.25-0.47c-0.08-0.16-0.15-0.32-0.22-0.49c-0.07-0.17-0.13-0.34-0.19-0.5
			c-0.06-0.17-0.11-0.34-0.16-0.52c-0.05-0.18-0.09-0.35-0.13-0.53c-0.04-0.18-0.07-0.36-0.09-0.55c-0.02-0.19-0.04-0.37-0.06-0.56
			c-0.01-0.19-0.02-0.38-0.02-0.57c0-0.19,0.01-0.38,0.02-0.57c0.01-0.19,0.03-0.37,0.06-0.56c0.02-0.18,0.06-0.37,0.09-0.55
			c0.04-0.18,0.08-0.36,0.13-0.53c0.05-0.18,0.1-0.35,0.16-0.52c0.06-0.17,0.12-0.34,0.19-0.5c0.07-0.16,0.14-0.33,0.22-0.49
			c0.08-0.16,0.16-0.32,0.25-0.47c0.09-0.16,0.19-0.32,0.29-0.47c0.1-0.15,0.21-0.3,0.32-0.45c0.11-0.14,0.23-0.29,0.35-0.42
			c0.12-0.14,0.24-0.27,0.37-0.4c0.13-0.13,0.26-0.25,0.4-0.37c0.14-0.12,0.28-0.24,0.42-0.35c0.14-0.11,0.29-0.22,0.45-0.32
			c0.15-0.1,0.31-0.2,0.47-0.29c0.15-0.09,0.31-0.17,0.47-0.25c0.16-0.08,0.32-0.15,0.49-0.22c0.16-0.07,0.33-0.13,0.5-0.19
			c0.17-0.06,0.35-0.11,0.52-0.16c0.18-0.05,0.36-0.09,0.53-0.13c0.18-0.04,0.36-0.07,0.55-0.09c0.18-0.02,0.37-0.04,0.56-0.06
			c0.37-0.03,0.76-0.02,1.13,0c0.19,0.01,0.37,0.03,0.56,0.06c0.18,0.02,0.37,0.06,0.55,0.09c0.18,0.04,0.36,0.08,0.53,0.13
			c0.17,0.05,0.35,0.1,0.52,0.16c0.17,0.06,0.34,0.12,0.5,0.19c0.16,0.07,0.33,0.14,0.49,0.22c0.16,0.08,0.32,0.16,0.47,0.25
			c0.16,0.09,0.32,0.19,0.47,0.29c0.15,0.1,0.3,0.21,0.45,0.32c0.14,0.11,0.29,0.23,0.42,0.35c0.14,0.12,0.27,0.25,0.4,0.37
			c0.13,0.13,0.25,0.26,0.37,0.4c0.12,0.14,0.24,0.28,0.35,0.42c0.11,0.15,0.22,0.3,0.32,0.45c0.1,0.15,0.2,0.31,0.29,0.47
			c0.09,0.15,0.17,0.31,0.25,0.47c0.08,0.16,0.15,0.32,0.22,0.49c0.12,0.29-0.02,0.63-0.31,0.75c-0.29,0.12-0.63-0.02-0.75-0.31
			c-0.06-0.14-0.12-0.28-0.19-0.42c-0.07-0.14-0.14-0.27-0.22-0.41c-0.08-0.14-0.16-0.27-0.25-0.4c-0.09-0.13-0.18-0.26-0.28-0.38
			c-0.1-0.12-0.2-0.25-0.3-0.37c-0.1-0.12-0.21-0.23-0.32-0.34c-0.11-0.11-0.23-0.22-0.34-0.32c-0.12-0.1-0.24-0.2-0.37-0.3
			c-0.12-0.1-0.25-0.19-0.38-0.28c-0.13-0.09-0.27-0.17-0.4-0.25c-0.13-0.08-0.27-0.15-0.41-0.22c-0.14-0.07-0.28-0.13-0.42-0.19
			c-0.14-0.06-0.29-0.12-0.44-0.17c-0.15-0.05-0.3-0.1-0.45-0.14c-0.15-0.04-0.31-0.08-0.46-0.11c-0.16-0.03-0.31-0.06-0.47-0.08
			c-0.16-0.02-0.32-0.04-0.48-0.05c-0.32-0.02-0.66-0.02-0.98,0c-0.16,0.01-0.32,0.03-0.48,0.05c-0.16,0.02-0.32,0.05-0.47,0.08
			c-0.15,0.03-0.31,0.07-0.46,0.11C32.15,8.05,32,8.1,31.85,8.15c-0.15,0.05-0.29,0.11-0.44,0.17c-0.14,0.06-0.28,0.12-0.42,0.19
			c-0.14,0.07-0.27,0.14-0.41,0.22c-0.14,0.08-0.27,0.16-0.4,0.25c-0.13,0.09-0.26,0.18-0.38,0.28c-0.12,0.1-0.25,0.2-0.37,0.3
			c-0.12,0.1-0.23,0.21-0.34,0.32c-0.11,0.11-0.22,0.23-0.32,0.34c-0.1,0.12-0.2,0.24-0.3,0.37c-0.1,0.12-0.19,0.25-0.28,0.38
			c-0.09,0.13-0.17,0.27-0.25,0.4c-0.08,0.13-0.15,0.27-0.22,0.41c-0.07,0.14-0.13,0.28-0.19,0.42c-0.06,0.14-0.12,0.29-0.17,0.43
			c-0.05,0.15-0.1,0.3-0.14,0.45c-0.04,0.15-0.08,0.3-0.11,0.46c-0.03,0.15-0.06,0.31-0.08,0.47c-0.02,0.16-0.04,0.32-0.05,0.48
			c-0.01,0.16-0.02,0.33-0.02,0.49s0.01,0.33,0.02,0.49c0.01,0.16,0.03,0.32,0.05,0.48c0.02,0.16,0.05,0.32,0.08,0.47
			c0.03,0.15,0.07,0.31,0.11,0.46c0.04,0.15,0.09,0.3,0.14,0.45c0.05,0.15,0.11,0.29,0.17,0.44c0.06,0.14,0.12,0.28,0.19,0.42
			c0.07,0.14,0.14,0.27,0.22,0.41c0.08,0.14,0.16,0.27,0.25,0.4c0.09,0.13,0.18,0.26,0.28,0.38c0.1,0.12,0.2,0.25,0.3,0.37
			c0.1,0.12,0.21,0.23,0.32,0.34c0.11,0.11,0.23,0.22,0.34,0.32c0.12,0.1,0.24,0.2,0.37,0.3c0.12,0.1,0.25,0.19,0.38,0.28
			c0.13,0.09,0.27,0.17,0.4,0.25c0.13,0.08,0.27,0.15,0.41,0.22c0.14,0.07,0.28,0.13,0.42,0.19c0.14,0.06,0.29,0.12,0.44,0.17
			c0.15,0.05,0.3,0.1,0.45,0.14c0.15,0.04,0.31,0.08,0.46,0.11c0.16,0.03,0.31,0.06,0.47,0.08c0.16,0.02,0.32,0.04,0.48,0.05
			c0.32,0.02,0.66,0.02,0.98,0c0.16-0.01,0.32-0.03,0.48-0.05c0.16-0.02,0.32-0.05,0.47-0.08c0.15-0.03,0.31-0.07,0.46-0.11
			c0.15-0.04,0.3-0.09,0.45-0.14c0.15-0.05,0.29-0.11,0.44-0.17c0.29-0.12,0.63,0.02,0.75,0.31c0.12,0.29-0.02,0.63-0.31,0.75
			c-0.17,0.07-0.34,0.13-0.5,0.19c-0.17,0.06-0.35,0.11-0.52,0.16c-0.18,0.05-0.36,0.09-0.53,0.13c-0.18,0.04-0.36,0.07-0.55,0.09
			c-0.18,0.02-0.37,0.04-0.56,0.06C34.58,23.35,34.39,23.36,34.2,23.36z"/>
	</g>
	<g>
		<path class="st4" d="M34.2,21.49c-0.32,0-0.57-0.26-0.57-0.57s0.26-0.57,0.57-0.57c0.12,0,0.24,0,0.36-0.01
			c0.12-0.01,0.24-0.02,0.36-0.04c0.12-0.02,0.23-0.04,0.35-0.06c0.11-0.02,0.23-0.05,0.34-0.08c0.11-0.03,0.22-0.06,0.33-0.1
			c0.11-0.04,0.22-0.08,0.32-0.12c0.1-0.04,0.21-0.09,0.31-0.14c0.1-0.05,0.2-0.1,0.3-0.16c0.1-0.06,0.2-0.12,0.3-0.19
			c0.1-0.06,0.19-0.13,0.28-0.2c0.09-0.07,0.18-0.15,0.27-0.22c0.09-0.08,0.17-0.16,0.26-0.24c0.08-0.08,0.16-0.17,0.24-0.26
			c0.08-0.09,0.15-0.18,0.22-0.27c0.07-0.09,0.14-0.19,0.2-0.28c0.07-0.1,0.13-0.2,0.19-0.3c0.06-0.1,0.11-0.2,0.16-0.3
			c0.05-0.1,0.1-0.21,0.14-0.31c0.04-0.11,0.09-0.21,0.12-0.32c0.04-0.11,0.07-0.22,0.1-0.33c0.03-0.11,0.06-0.23,0.08-0.34
			c0.02-0.12,0.04-0.23,0.06-0.35c0.02-0.12,0.03-0.24,0.04-0.36c0.01-0.12,0.01-0.24,0.01-0.36s0-0.24-0.01-0.36
			c-0.01-0.12-0.02-0.24-0.04-0.36c-0.02-0.12-0.04-0.23-0.06-0.35c-0.02-0.11-0.05-0.23-0.08-0.34c-0.03-0.11-0.06-0.22-0.1-0.33
			c-0.04-0.11-0.08-0.22-0.12-0.32c-0.04-0.1-0.09-0.21-0.14-0.31c-0.05-0.1-0.1-0.2-0.16-0.3c-0.06-0.1-0.12-0.2-0.19-0.3
			c-0.06-0.1-0.13-0.19-0.2-0.28c-0.07-0.09-0.15-0.18-0.22-0.27c-0.08-0.09-0.16-0.17-0.24-0.26c-0.08-0.08-0.17-0.16-0.26-0.24
			c-0.09-0.08-0.18-0.15-0.27-0.22c-0.09-0.07-0.19-0.14-0.29-0.2c-0.1-0.06-0.2-0.13-0.3-0.19c-0.1-0.06-0.2-0.11-0.3-0.16
			c-0.1-0.05-0.21-0.1-0.31-0.14c-0.11-0.04-0.21-0.09-0.32-0.12c-0.11-0.04-0.22-0.07-0.33-0.1c-0.11-0.03-0.23-0.06-0.34-0.08
			c-0.11-0.02-0.23-0.04-0.35-0.06c-0.12-0.02-0.24-0.03-0.36-0.04c-0.24-0.02-0.49-0.02-0.73,0c-0.12,0.01-0.24,0.02-0.36,0.04
			c-0.12,0.02-0.23,0.04-0.35,0.06c-0.11,0.02-0.23,0.05-0.34,0.08c-0.11,0.03-0.22,0.06-0.33,0.1c-0.11,0.04-0.22,0.08-0.32,0.12
			c-0.11,0.04-0.21,0.09-0.31,0.14c-0.1,0.05-0.2,0.1-0.3,0.16c-0.1,0.06-0.2,0.12-0.3,0.19c-0.1,0.06-0.19,0.13-0.28,0.2
			c-0.09,0.07-0.18,0.15-0.27,0.22c-0.09,0.08-0.17,0.16-0.26,0.24c-0.08,0.08-0.16,0.17-0.24,0.26c-0.08,0.09-0.15,0.18-0.22,0.27
			c-0.07,0.09-0.14,0.19-0.2,0.28c-0.07,0.1-0.13,0.2-0.19,0.3c-0.06,0.1-0.11,0.2-0.16,0.3c-0.05,0.1-0.1,0.21-0.14,0.31
			c-0.04,0.11-0.09,0.21-0.12,0.32c-0.04,0.11-0.07,0.22-0.1,0.33c-0.03,0.11-0.06,0.23-0.08,0.34c-0.02,0.12-0.04,0.23-0.06,0.35
			c-0.02,0.12-0.03,0.24-0.04,0.36c-0.01,0.12-0.01,0.24-0.01,0.36c0,0.12,0,0.24,0.01,0.36c0.01,0.12,0.02,0.24,0.04,0.36
			c0.02,0.12,0.04,0.23,0.06,0.35c0.02,0.11,0.05,0.23,0.08,0.34c0.03,0.11,0.06,0.22,0.1,0.33c0.04,0.11,0.08,0.22,0.12,0.32
			c0.04,0.1,0.09,0.21,0.14,0.31c0.14,0.28,0.02,0.63-0.26,0.77c-0.28,0.14-0.63,0.02-0.77-0.26c-0.06-0.12-0.12-0.25-0.17-0.38
			c-0.05-0.13-0.1-0.26-0.15-0.39c-0.05-0.13-0.09-0.27-0.12-0.4c-0.04-0.14-0.07-0.28-0.1-0.41c-0.03-0.14-0.05-0.28-0.07-0.42
			c-0.02-0.14-0.03-0.29-0.04-0.43c-0.01-0.15-0.01-0.3-0.01-0.44s0-0.29,0.01-0.44c0.01-0.14,0.02-0.29,0.04-0.43
			c0.02-0.14,0.04-0.28,0.07-0.42c0.03-0.14,0.06-0.28,0.1-0.41c0.04-0.13,0.08-0.27,0.12-0.4c0.05-0.13,0.1-0.26,0.15-0.39
			c0.05-0.13,0.11-0.25,0.17-0.38c0.06-0.12,0.13-0.25,0.2-0.37c0.07-0.12,0.15-0.24,0.23-0.36c0.08-0.12,0.16-0.23,0.25-0.35
			c0.09-0.11,0.18-0.22,0.27-0.33c0.09-0.11,0.19-0.21,0.29-0.31c0.1-0.1,0.2-0.2,0.31-0.29c0.11-0.09,0.22-0.18,0.33-0.27
			c0.11-0.09,0.23-0.17,0.35-0.25c0.12-0.08,0.24-0.15,0.36-0.23c0.12-0.07,0.24-0.13,0.37-0.2c0.12-0.06,0.25-0.12,0.38-0.17
			c0.13-0.05,0.26-0.1,0.39-0.15c0.13-0.05,0.27-0.09,0.4-0.12c0.14-0.04,0.28-0.07,0.41-0.1c0.14-0.03,0.28-0.05,0.42-0.07
			c0.14-0.02,0.29-0.03,0.43-0.04c0.29-0.02,0.59-0.02,0.88,0c0.14,0.01,0.29,0.02,0.43,0.04c0.14,0.02,0.28,0.04,0.42,0.07
			c0.14,0.03,0.28,0.06,0.41,0.1c0.14,0.04,0.27,0.08,0.4,0.12c0.13,0.05,0.26,0.1,0.39,0.15c0.13,0.05,0.26,0.11,0.38,0.17
			c0.12,0.06,0.25,0.13,0.37,0.2c0.12,0.07,0.24,0.15,0.36,0.23c0.12,0.08,0.23,0.16,0.35,0.25c0.11,0.09,0.22,0.18,0.33,0.27
			c0.11,0.09,0.21,0.19,0.31,0.29c0.1,0.1,0.2,0.2,0.29,0.31c0.09,0.11,0.18,0.22,0.27,0.33c0.09,0.11,0.17,0.23,0.25,0.35
			c0.08,0.12,0.16,0.24,0.23,0.36c0.07,0.12,0.13,0.24,0.2,0.37c0.06,0.13,0.12,0.25,0.17,0.38c0.05,0.13,0.1,0.26,0.15,0.39
			c0.05,0.13,0.09,0.27,0.12,0.4c0.04,0.14,0.07,0.28,0.1,0.41c0.03,0.14,0.05,0.28,0.07,0.42c0.02,0.14,0.03,0.29,0.04,0.43
			c0.01,0.15,0.01,0.29,0.01,0.44c0,0.15,0,0.29-0.01,0.44c-0.01,0.14-0.02,0.29-0.04,0.43c-0.02,0.14-0.04,0.28-0.07,0.42
			c-0.03,0.14-0.06,0.28-0.1,0.41c-0.04,0.14-0.08,0.27-0.12,0.4c-0.04,0.13-0.1,0.26-0.15,0.39c-0.05,0.13-0.11,0.25-0.17,0.38
			c-0.06,0.12-0.13,0.25-0.2,0.37c-0.07,0.12-0.15,0.24-0.23,0.36c-0.08,0.12-0.16,0.23-0.25,0.35c-0.09,0.11-0.18,0.22-0.27,0.33
			c-0.09,0.11-0.19,0.21-0.29,0.31c-0.1,0.1-0.2,0.2-0.31,0.29c-0.11,0.09-0.22,0.18-0.33,0.27c-0.11,0.09-0.23,0.17-0.35,0.25
			c-0.12,0.08-0.24,0.15-0.36,0.23c-0.12,0.07-0.24,0.14-0.37,0.2c-0.12,0.06-0.25,0.12-0.38,0.17c-0.13,0.05-0.26,0.1-0.39,0.15
			c-0.13,0.05-0.27,0.09-0.4,0.12c-0.14,0.04-0.28,0.07-0.41,0.1c-0.14,0.03-0.28,0.05-0.42,0.07c-0.14,0.02-0.29,0.03-0.43,0.04
			C34.49,21.48,34.35,21.49,34.2,21.49z"/>
	</g>
	<g>
		<path class="st0" d="M57.14,11.53H54.5v-1.41h6.89v1.41h-2.67v7.88h-1.58V11.53z"/>
		<path class="st0" d="M60.66,16.23c0-1.89,1.34-3.3,3.35-3.3c1.96,0,3.35,1.34,3.35,3.3c0,1.94-1.39,3.29-3.35,3.29
			C61.99,19.52,60.66,18.1,60.66,16.23z M65.87,16.23c0-1.18-0.81-1.98-1.86-1.98c-1.11,0-1.86,0.86-1.86,1.98
			c0,1.09,0.76,1.95,1.86,1.95C65.05,18.18,65.87,17.38,65.87,16.23z"/>
		<path class="st0" d="M68.37,9.77h1.47v6.2l0.03,0.01l2.59-2.96h1.74l-2.31,2.57l2.34,3.82h-1.65l-1.72-2.82l-1.03,1.13v1.69h-1.47
			V9.77z"/>
		<path class="st0" d="M77.42,19.06l-2.62-6.04h1.57l1.76,4.28h0.03l1.64-4.28h1.51l-3.51,8.98h-1.52L77.42,19.06z"/>
		<path class="st0" d="M81.29,16.23c0-1.89,1.34-3.3,3.35-3.3c1.96,0,3.35,1.34,3.35,3.3c0,1.94-1.39,3.29-3.35,3.29
			C82.62,19.52,81.29,18.1,81.29,16.23z M86.5,16.23c0-1.18-0.81-1.98-1.86-1.98c-1.11,0-1.86,0.86-1.86,1.98
			c0,1.09,0.76,1.95,1.86,1.95C85.67,18.18,86.5,17.38,86.5,16.23z"/>
		<path class="st0" d="M91.45,10.11h1.69l1.99,6.71h0.03l1.82-6.71h1.68l1.81,6.69h0.03l2-6.69h1.68l-2.95,9.3h-1.48l-1.9-6.99
			h-0.03l-1.94,6.99H94.4L91.45,10.11z"/>
		<path class="st0" d="M109.95,16.7h-4.66c0.18,0.93,0.88,1.48,1.87,1.48c0.76,0,1.28-0.34,1.61-0.75l1.02,0.88
			c-0.54,0.69-1.34,1.2-2.71,1.2c-1.94,0-3.31-1.3-3.31-3.3c0-1.96,1.34-3.29,3.21-3.29c1.79,0,3.01,1.35,3.01,3.21
			C109.99,16.37,109.97,16.6,109.95,16.7z M105.32,15.55h3.2c-0.18-0.77-0.71-1.3-1.55-1.3C106.16,14.25,105.53,14.71,105.32,15.55z
			"/>
		<path class="st0" d="M110.45,18.59l0.73-1.1c0.51,0.5,1.06,0.75,1.85,0.75c0.56,0,0.89-0.25,0.89-0.63c0-0.33-0.42-0.48-1.26-0.77
			c-1.05-0.37-1.95-0.84-1.95-2.1c0-1.05,0.94-1.81,2.25-1.81c0.81,0,1.55,0.22,2.25,0.8l-0.73,1.15c-0.51-0.48-1.1-0.68-1.6-0.68
			c-0.29,0-0.69,0.16-0.69,0.55c0,0.31,0.39,0.54,1.01,0.77c1.36,0.54,2.21,0.79,2.21,2.06c0,1.07-0.76,1.94-2.38,1.94
			C112,19.52,111.12,19.18,110.45,18.59z"/>
		<path class="st0" d="M116.46,17.4v-3.13h-0.79v-1.24h0.79V10.9l1.47-0.16v2.28h1.87v1.24h-1.87v2.99c0,0.65,0.2,0.89,0.62,0.89
			c0.25,0,0.6-0.09,0.94-0.28l0.38,1.27c-0.38,0.21-0.79,0.38-1.62,0.38C117.14,19.52,116.46,18.82,116.46,17.4z"/>
	</g>
</g>
<g>
</g>
<g>
</g>
<g>
</g>
<g>
</g>
<g>
</g>
<g>
</g>
<g>
</g>
<g>
</g>
<g>
</g>
<g>
</g>
<g>
</g>
<g>
</g>
<g>
</g>
<g>
</g>
<g>
</g>
</svg>
