<?xml version="1.0" encoding="utf-8"?>
<!-- Generator: Adobe Illustrator 25.2.0, SVG Export Plug-In . SVG Version: 6.00 Build 0)  -->
<svg version="1.1" id="レイヤー_1" xmlns="http://www.w3.org/2000/svg" xmlns:xlink="http://www.w3.org/1999/xlink" x="0px"
	 y="0px" width="200px" height="45px" viewBox="0 0 200 45" style="enable-background:new 0 0 200 45;" xml:space="preserve">
<style type="text/css">
	.st0{fill:#221F1F;}
</style>
<g>
	<path class="st0" d="M32.9,39.89H12.44V24.06h16.2c0.67,0,1.22-0.55,1.22-1.22c0-0.67-0.55-1.22-1.22-1.22h-16.2V5.73h19.25
		c0.67,0,1.22-0.55,1.22-1.22c0-0.67-0.55-1.22-1.22-1.22H11.22C10.55,3.29,10,3.84,10,4.51v36.6c0,0.67,0.55,1.22,1.22,1.22H32.9
		c0.67,0,1.22-0.55,1.22-1.22S33.58,39.89,32.9,39.89z"/>
	<g>
		<path class="st0" d="M56.34,44.35c-0.49,0-0.98-0.02-1.47-0.05c-0.48-0.03-0.97-0.08-1.44-0.14c-0.47-0.06-0.95-0.14-1.41-0.24
			c-0.46-0.09-0.93-0.2-1.38-0.33c-0.45-0.12-0.9-0.26-1.35-0.41c-0.44-0.15-0.88-0.32-1.31-0.5c-0.43-0.18-0.85-0.37-1.26-0.58
			c-0.41-0.2-0.82-0.42-1.22-0.65c-0.41-0.24-0.82-0.49-1.21-0.75c-0.39-0.26-0.78-0.54-1.15-0.83c-0.37-0.29-0.74-0.59-1.09-0.9
			c-0.35-0.31-0.7-0.64-1.03-0.97c-0.33-0.33-0.66-0.68-0.97-1.03c-0.31-0.35-0.61-0.72-0.9-1.09c-0.29-0.38-0.57-0.76-0.83-1.15
			c-0.26-0.39-0.52-0.8-0.75-1.21c-0.23-0.4-0.45-0.81-0.65-1.22c-0.2-0.41-0.4-0.84-0.58-1.26c-0.18-0.43-0.35-0.87-0.5-1.31
			c-0.15-0.44-0.29-0.89-0.41-1.35c-0.12-0.45-0.23-0.92-0.33-1.38c-0.09-0.47-0.17-0.94-0.24-1.41c-0.06-0.48-0.11-0.96-0.14-1.44
			c-0.03-0.49-0.05-0.98-0.05-1.47c0-0.49,0.02-0.98,0.05-1.47c0.03-0.48,0.08-0.97,0.14-1.44c0.06-0.47,0.14-0.95,0.24-1.41
			c0.09-0.46,0.2-0.92,0.33-1.38c0.12-0.45,0.26-0.9,0.41-1.35c0.15-0.44,0.32-0.88,0.5-1.31c0.18-0.43,0.37-0.85,0.58-1.26
			c0.2-0.41,0.42-0.82,0.65-1.22c0.24-0.41,0.49-0.81,0.75-1.21c0.26-0.39,0.54-0.78,0.83-1.15c0.29-0.37,0.59-0.74,0.9-1.09
			c0.31-0.35,0.64-0.7,0.97-1.03c0.33-0.33,0.68-0.66,1.03-0.97c0.35-0.31,0.72-0.61,1.09-0.9c0.37-0.29,0.76-0.57,1.15-0.83
			c0.39-0.26,0.8-0.52,1.21-0.75c0.4-0.23,0.81-0.45,1.22-0.65c0.41-0.21,0.84-0.4,1.26-0.58c0.43-0.18,0.87-0.35,1.31-0.5
			c0.44-0.15,0.89-0.29,1.35-0.41c0.45-0.12,0.92-0.23,1.38-0.33c0.47-0.09,0.94-0.17,1.41-0.24c0.48-0.06,0.96-0.11,1.44-0.14
			c0.97-0.06,1.97-0.06,2.94,0c0.48,0.03,0.97,0.08,1.44,0.14c0.47,0.06,0.95,0.14,1.41,0.24c0.46,0.09,0.93,0.2,1.38,0.33
			c0.45,0.12,0.9,0.26,1.35,0.41c0.44,0.15,0.88,0.32,1.31,0.5c0.45,0.19,0.67,0.71,0.48,1.16c-0.19,0.45-0.71,0.67-1.16,0.48
			c-0.39-0.16-0.8-0.32-1.2-0.46C62.41,3.71,62,3.58,61.58,3.47c-0.42-0.11-0.84-0.21-1.27-0.3c-0.43-0.09-0.86-0.16-1.3-0.22
			c-0.44-0.06-0.88-0.1-1.33-0.13c-0.89-0.06-1.81-0.06-2.7,0c-0.44,0.03-0.89,0.07-1.33,0.13c-0.43,0.06-0.87,0.13-1.3,0.22
			c-0.42,0.09-0.85,0.19-1.27,0.3c-0.41,0.11-0.83,0.24-1.23,0.38c-0.4,0.14-0.81,0.29-1.2,0.46c-0.39,0.16-0.78,0.34-1.16,0.53
			c-0.38,0.19-0.75,0.39-1.12,0.6c-0.38,0.22-0.75,0.45-1.11,0.69c-0.36,0.24-0.72,0.5-1.06,0.76c-0.34,0.26-0.68,0.54-1.01,0.83
			C42.89,8,42.57,8.29,42.27,8.6c-0.31,0.31-0.6,0.63-0.89,0.95c-0.29,0.33-0.56,0.66-0.83,1.01c-0.26,0.34-0.52,0.7-0.76,1.06
			c-0.24,0.36-0.47,0.73-0.69,1.11c-0.21,0.37-0.41,0.74-0.6,1.12c-0.19,0.38-0.37,0.77-0.53,1.16c-0.16,0.39-0.32,0.79-0.46,1.2
			c-0.14,0.41-0.27,0.82-0.38,1.23c-0.11,0.42-0.21,0.84-0.3,1.27c-0.09,0.43-0.16,0.86-0.22,1.3c-0.06,0.44-0.1,0.88-0.13,1.33
			c-0.03,0.45-0.05,0.9-0.05,1.35c0,0.45,0.02,0.9,0.05,1.35c0.03,0.44,0.07,0.89,0.13,1.33c0.06,0.43,0.13,0.87,0.22,1.3
			c0.09,0.43,0.19,0.85,0.3,1.27c0.11,0.41,0.24,0.83,0.38,1.23c0.14,0.4,0.29,0.81,0.46,1.2c0.16,0.39,0.34,0.78,0.53,1.16
			c0.19,0.38,0.39,0.75,0.6,1.12c0.22,0.37,0.45,0.75,0.69,1.11c0.24,0.36,0.5,0.71,0.76,1.06c0.26,0.34,0.54,0.68,0.83,1.01
			c0.28,0.32,0.58,0.64,0.89,0.95c0.3,0.3,0.62,0.6,0.95,0.89c0.32,0.28,0.66,0.56,1.01,0.83c0.34,0.26,0.7,0.52,1.06,0.76
			c0.36,0.24,0.73,0.47,1.11,0.69c0.37,0.21,0.74,0.41,1.12,0.6c0.38,0.19,0.77,0.37,1.16,0.53c0.39,0.16,0.8,0.32,1.2,0.46
			c0.41,0.14,0.82,0.27,1.23,0.38c0.42,0.11,0.84,0.21,1.27,0.3c0.43,0.09,0.86,0.16,1.3,0.22c0.44,0.06,0.88,0.1,1.33,0.13
			c0.89,0.06,1.81,0.06,2.7,0c0.44-0.03,0.89-0.07,1.33-0.13c0.43-0.06,0.87-0.13,1.3-0.22c0.42-0.09,0.85-0.19,1.27-0.3
			c0.41-0.11,0.83-0.24,1.23-0.38c0.4-0.14,0.81-0.29,1.2-0.46c0.39-0.16,0.78-0.34,1.16-0.53c0.38-0.19,0.75-0.39,1.12-0.6
			c0.38-0.22,0.75-0.45,1.11-0.69c0.36-0.24,0.72-0.5,1.06-0.76c0.34-0.26,0.68-0.54,1.01-0.83c0.32-0.29,0.64-0.58,0.95-0.89
			c0.31-0.3,0.6-0.62,0.89-0.95c0.28-0.32,0.56-0.66,0.83-1.01c0.26-0.34,0.52-0.7,0.76-1.06c0.24-0.36,0.47-0.73,0.69-1.11
			c0.21-0.36,0.41-0.74,0.6-1.12c0.19-0.38,0.37-0.77,0.53-1.16c0.16-0.39,0.32-0.8,0.46-1.2c0.14-0.41,0.27-0.82,0.38-1.23
			c0.11-0.42,0.21-0.84,0.3-1.27c0.09-0.43,0.16-0.86,0.22-1.3c0.06-0.44,0.1-0.88,0.13-1.33c0.03-0.45,0.05-0.9,0.05-1.35
			c0-0.45-0.02-0.9-0.05-1.35c-0.03-0.44-0.07-0.89-0.13-1.33c-0.06-0.43-0.13-0.87-0.22-1.3c-0.09-0.42-0.19-0.85-0.3-1.27
			c-0.11-0.41-0.24-0.83-0.38-1.23c-0.14-0.4-0.29-0.81-0.46-1.2c-0.16-0.39-0.34-0.78-0.53-1.16c-0.22-0.44-0.04-0.97,0.4-1.19
			c0.44-0.22,0.97-0.04,1.19,0.4c0.2,0.41,0.4,0.84,0.58,1.26c0.18,0.43,0.35,0.87,0.5,1.31c0.15,0.44,0.29,0.9,0.41,1.35
			c0.12,0.46,0.23,0.92,0.33,1.38c0.09,0.46,0.17,0.94,0.24,1.41c0.06,0.48,0.11,0.96,0.14,1.44c0.03,0.49,0.05,0.98,0.05,1.47
			c0,0.49-0.02,0.98-0.05,1.47c-0.03,0.48-0.08,0.97-0.14,1.44c-0.06,0.47-0.14,0.95-0.24,1.41c-0.09,0.46-0.2,0.92-0.33,1.38
			c-0.12,0.45-0.26,0.9-0.41,1.35c-0.15,0.44-0.32,0.88-0.5,1.31c-0.18,0.43-0.37,0.85-0.58,1.26c-0.2,0.41-0.42,0.82-0.65,1.22
			c-0.24,0.41-0.49,0.81-0.75,1.21c-0.26,0.39-0.54,0.78-0.83,1.15c-0.29,0.37-0.59,0.74-0.9,1.09c-0.31,0.35-0.64,0.7-0.97,1.03
			c-0.33,0.33-0.68,0.66-1.03,0.97c-0.35,0.31-0.72,0.61-1.09,0.9c-0.37,0.29-0.76,0.57-1.15,0.83c-0.39,0.26-0.8,0.52-1.21,0.75
			c-0.4,0.23-0.81,0.45-1.22,0.65c-0.41,0.2-0.84,0.4-1.26,0.58c-0.43,0.18-0.87,0.35-1.31,0.5c-0.44,0.15-0.89,0.29-1.35,0.41
			c-0.45,0.12-0.92,0.23-1.38,0.33c-0.47,0.09-0.94,0.17-1.41,0.24c-0.48,0.06-0.96,0.11-1.44,0.14
			C57.33,44.33,56.83,44.35,56.34,44.35z"/>
	</g>
	<g>
		<path class="st0" d="M56.34,41.45c-0.49,0-0.89-0.4-0.89-0.89s0.4-0.89,0.89-0.89c0.38,0,0.77-0.01,1.15-0.04
			c0.38-0.03,0.76-0.06,1.13-0.11c0.37-0.05,0.74-0.11,1.11-0.19c0.36-0.07,0.73-0.16,1.08-0.26c0.35-0.1,0.71-0.21,1.05-0.32
			c0.34-0.12,0.69-0.25,1.02-0.39c0.33-0.14,0.67-0.29,0.99-0.45c0.32-0.16,0.64-0.33,0.96-0.51c0.32-0.19,0.64-0.38,0.95-0.59
			c0.31-0.21,0.61-0.42,0.9-0.65c0.29-0.22,0.58-0.46,0.86-0.71c0.28-0.24,0.55-0.5,0.81-0.76c0.26-0.26,0.52-0.53,0.76-0.81
			c0.24-0.28,0.48-0.57,0.71-0.86c0.23-0.29,0.44-0.6,0.65-0.9c0.21-0.31,0.4-0.63,0.59-0.95c0.18-0.31,0.35-0.63,0.51-0.96
			c0.16-0.32,0.31-0.66,0.45-0.99c0.14-0.34,0.27-0.68,0.39-1.02c0.12-0.35,0.23-0.7,0.32-1.06c0.1-0.35,0.18-0.72,0.26-1.08
			c0.07-0.36,0.14-0.74,0.19-1.11c0.05-0.37,0.09-0.75,0.11-1.13c0.03-0.38,0.04-0.77,0.04-1.15c0-0.38-0.01-0.77-0.04-1.15
			c-0.02-0.38-0.06-0.76-0.11-1.13c-0.05-0.37-0.11-0.74-0.19-1.11c-0.07-0.36-0.16-0.73-0.26-1.08c-0.1-0.35-0.21-0.71-0.32-1.05
			c-0.12-0.34-0.25-0.69-0.39-1.02c-0.14-0.33-0.29-0.67-0.45-0.99c-0.16-0.32-0.33-0.64-0.51-0.96c-0.19-0.32-0.38-0.64-0.59-0.95
			c-0.21-0.31-0.42-0.61-0.65-0.9c-0.22-0.29-0.46-0.58-0.71-0.86c-0.24-0.28-0.5-0.55-0.76-0.81c-0.26-0.26-0.53-0.52-0.81-0.76
			c-0.28-0.24-0.57-0.48-0.86-0.71c-0.29-0.23-0.6-0.44-0.9-0.65c-0.31-0.21-0.63-0.4-0.95-0.59c-0.31-0.18-0.63-0.35-0.96-0.51
			c-0.32-0.16-0.66-0.31-0.99-0.45c-0.34-0.14-0.68-0.27-1.02-0.39c-0.35-0.12-0.7-0.23-1.05-0.32c-0.36-0.1-0.72-0.18-1.08-0.26
			C59.37,5.94,59,5.88,58.63,5.83c-0.37-0.05-0.75-0.09-1.13-0.11c-0.76-0.05-1.54-0.05-2.31,0c-0.38,0.03-0.76,0.06-1.13,0.11
			c-0.37,0.05-0.74,0.11-1.11,0.19c-0.36,0.07-0.73,0.16-1.08,0.26c-0.35,0.1-0.71,0.21-1.05,0.32c-0.34,0.12-0.69,0.25-1.02,0.39
			c-0.33,0.14-0.67,0.29-0.99,0.45c-0.32,0.16-0.64,0.33-0.96,0.51c-0.32,0.19-0.64,0.38-0.95,0.59c-0.31,0.21-0.61,0.42-0.9,0.65
			c-0.29,0.22-0.58,0.46-0.86,0.71c-0.28,0.24-0.55,0.5-0.81,0.76c-0.26,0.26-0.52,0.53-0.76,0.81c-0.24,0.28-0.48,0.57-0.71,0.86
			c-0.23,0.29-0.44,0.6-0.65,0.9c-0.21,0.31-0.4,0.63-0.59,0.95c-0.18,0.31-0.35,0.63-0.51,0.96c-0.16,0.32-0.31,0.66-0.45,0.99
			c-0.14,0.34-0.27,0.68-0.39,1.02c-0.12,0.35-0.23,0.7-0.32,1.05c-0.1,0.36-0.18,0.72-0.26,1.08c-0.07,0.36-0.14,0.74-0.19,1.11
			c-0.05,0.37-0.09,0.75-0.11,1.13c-0.03,0.38-0.04,0.77-0.04,1.15s0.01,0.77,0.04,1.15c0.03,0.38,0.06,0.76,0.11,1.13
			c0.05,0.37,0.11,0.75,0.19,1.11c0.07,0.36,0.16,0.73,0.26,1.08c0.1,0.35,0.21,0.71,0.32,1.05c0.12,0.34,0.25,0.69,0.39,1.02
			c0.14,0.34,0.29,0.67,0.45,0.99c0.22,0.44,0.04,0.97-0.4,1.19c-0.44,0.22-0.97,0.04-1.19-0.4c-0.18-0.36-0.34-0.72-0.5-1.1
			c-0.15-0.37-0.3-0.75-0.43-1.13c-0.13-0.38-0.25-0.77-0.36-1.17c-0.11-0.4-0.2-0.8-0.28-1.2c-0.08-0.4-0.15-0.81-0.21-1.22
			c-0.06-0.41-0.1-0.83-0.13-1.25c-0.03-0.42-0.04-0.85-0.04-1.27s0.01-0.85,0.04-1.27c0.03-0.42,0.07-0.84,0.13-1.25
			c0.06-0.41,0.12-0.82,0.21-1.22c0.08-0.4,0.18-0.8,0.28-1.2c0.11-0.39,0.23-0.78,0.36-1.17c0.13-0.38,0.28-0.76,0.43-1.13
			c0.15-0.37,0.32-0.74,0.5-1.1c0.18-0.36,0.37-0.71,0.57-1.06c0.2-0.35,0.42-0.71,0.65-1.05c0.23-0.34,0.47-0.67,0.72-1
			c0.25-0.32,0.51-0.64,0.78-0.95c0.27-0.31,0.55-0.61,0.84-0.89c0.29-0.29,0.59-0.57,0.89-0.84c0.31-0.27,0.63-0.53,0.95-0.78
			c0.32-0.25,0.66-0.49,1-0.72c0.34-0.23,0.69-0.45,1.05-0.65c0.34-0.2,0.7-0.39,1.06-0.57c0.36-0.18,0.73-0.35,1.1-0.5
			c0.37-0.15,0.75-0.3,1.13-0.43c0.38-0.13,0.77-0.25,1.17-0.36c0.39-0.11,0.8-0.2,1.2-0.28c0.4-0.08,0.82-0.15,1.22-0.21
			c0.41-0.06,0.83-0.1,1.25-0.13c0.84-0.06,1.7-0.06,2.54,0c0.42,0.03,0.84,0.07,1.25,0.13c0.41,0.05,0.82,0.12,1.22,0.21
			c0.4,0.08,0.8,0.18,1.2,0.28c0.39,0.11,0.78,0.23,1.17,0.36c0.38,0.13,0.76,0.28,1.13,0.43c0.37,0.15,0.74,0.32,1.1,0.5
			c0.36,0.18,0.71,0.37,1.06,0.57c0.35,0.2,0.71,0.42,1.05,0.65c0.34,0.23,0.67,0.47,1,0.72c0.32,0.25,0.64,0.51,0.95,0.78
			c0.31,0.27,0.61,0.55,0.89,0.84c0.29,0.29,0.57,0.59,0.84,0.89c0.27,0.31,0.53,0.63,0.78,0.95c0.25,0.32,0.49,0.66,0.72,1
			c0.23,0.34,0.45,0.69,0.65,1.05c0.2,0.34,0.39,0.7,0.57,1.06c0.18,0.36,0.35,0.73,0.5,1.1c0.15,0.37,0.3,0.75,0.43,1.13
			c0.13,0.38,0.25,0.77,0.36,1.17c0.11,0.4,0.2,0.8,0.28,1.2c0.08,0.4,0.15,0.82,0.21,1.22c0.06,0.41,0.1,0.83,0.13,1.25
			c0.03,0.42,0.04,0.85,0.04,1.27c0,0.42-0.01,0.85-0.04,1.27c-0.03,0.42-0.07,0.84-0.13,1.25c-0.06,0.41-0.12,0.82-0.21,1.22
			c-0.08,0.4-0.18,0.8-0.28,1.2c-0.11,0.39-0.23,0.78-0.36,1.17c-0.13,0.38-0.27,0.76-0.43,1.13c-0.15,0.37-0.32,0.74-0.5,1.1
			c-0.18,0.36-0.37,0.71-0.57,1.06c-0.21,0.36-0.43,0.71-0.65,1.05c-0.23,0.34-0.47,0.68-0.72,1c-0.25,0.32-0.51,0.64-0.78,0.95
			c-0.27,0.31-0.55,0.61-0.84,0.89c-0.29,0.29-0.59,0.57-0.89,0.84c-0.31,0.27-0.63,0.53-0.95,0.78c-0.32,0.25-0.66,0.49-1,0.72
			c-0.34,0.23-0.69,0.45-1.05,0.65c-0.34,0.2-0.7,0.39-1.06,0.57c-0.36,0.18-0.73,0.35-1.1,0.5c-0.37,0.15-0.75,0.3-1.13,0.43
			c-0.38,0.13-0.77,0.25-1.17,0.36c-0.39,0.11-0.8,0.2-1.2,0.28c-0.4,0.08-0.82,0.15-1.22,0.21c-0.41,0.06-0.83,0.1-1.25,0.13
			C57.19,41.43,56.77,41.45,56.34,41.45z"/>
	</g>
	<g>
		<path class="st0" d="M56.34,38.55c-0.36,0-0.72-0.01-1.08-0.04c-0.35-0.02-0.71-0.06-1.06-0.11c-0.35-0.05-0.69-0.1-1.04-0.17
			c-0.34-0.07-0.68-0.15-1.01-0.24c-0.33-0.09-0.66-0.19-0.99-0.3c-0.32-0.11-0.64-0.23-0.96-0.36c-0.31-0.13-0.62-0.27-0.93-0.42
			c-0.3-0.15-0.6-0.31-0.89-0.48c-0.3-0.17-0.6-0.36-0.88-0.55c-0.29-0.19-0.57-0.4-0.84-0.61c-0.27-0.21-0.54-0.43-0.8-0.66
			c-0.26-0.23-0.51-0.47-0.76-0.71c-0.24-0.24-0.48-0.5-0.71-0.76c-0.23-0.26-0.45-0.53-0.66-0.8c-0.21-0.27-0.41-0.56-0.61-0.84
			c-0.19-0.29-0.38-0.59-0.55-0.88c-0.17-0.29-0.33-0.59-0.48-0.89c-0.15-0.3-0.29-0.62-0.42-0.93c-0.13-0.31-0.25-0.63-0.36-0.96
			c-0.11-0.32-0.21-0.66-0.3-0.99c-0.09-0.33-0.17-0.67-0.24-1.01c-0.07-0.34-0.13-0.69-0.17-1.04c-0.05-0.35-0.08-0.7-0.11-1.06
			c-0.02-0.36-0.04-0.72-0.04-1.08c0-0.36,0.01-0.72,0.04-1.07c0.02-0.35,0.06-0.71,0.11-1.06c0.05-0.34,0.1-0.69,0.17-1.03
			c0.07-0.34,0.15-0.68,0.24-1.01c0.13-0.47,0.61-0.75,1.09-0.62c0.47,0.13,0.75,0.62,0.62,1.09c-0.08,0.3-0.15,0.6-0.21,0.9
			c-0.06,0.3-0.11,0.61-0.15,0.92c-0.04,0.31-0.07,0.63-0.09,0.94c-0.02,0.32-0.03,0.64-0.03,0.96c0,0.32,0.01,0.64,0.03,0.96
			c0.02,0.31,0.05,0.63,0.09,0.94c0.04,0.31,0.09,0.62,0.15,0.92c0.06,0.3,0.13,0.6,0.21,0.9c0.08,0.29,0.17,0.59,0.27,0.87
			c0.1,0.29,0.21,0.57,0.32,0.85c0.12,0.28,0.24,0.55,0.38,0.82c0.13,0.27,0.28,0.54,0.43,0.79c0.15,0.26,0.32,0.53,0.49,0.79
			c0.17,0.26,0.35,0.51,0.54,0.75c0.19,0.24,0.38,0.48,0.59,0.71c0.2,0.23,0.41,0.46,0.63,0.67c0.22,0.22,0.44,0.43,0.67,0.63
			c0.23,0.2,0.47,0.4,0.71,0.59c0.24,0.19,0.5,0.37,0.75,0.54c0.25,0.17,0.52,0.33,0.79,0.49c0.26,0.15,0.53,0.29,0.79,0.42
			c0.27,0.13,0.55,0.26,0.82,0.37c0.28,0.12,0.56,0.22,0.85,0.32c0.29,0.1,0.58,0.19,0.87,0.27c0.3,0.08,0.6,0.15,0.9,0.21
			c0.3,0.06,0.61,0.11,0.92,0.15c0.31,0.04,0.63,0.07,0.94,0.09c0.63,0.04,1.28,0.04,1.91,0c0.31-0.02,0.63-0.05,0.94-0.09
			c0.31-0.04,0.62-0.09,0.92-0.15c0.3-0.06,0.6-0.13,0.9-0.21c0.29-0.08,0.59-0.17,0.87-0.27c0.29-0.1,0.57-0.21,0.85-0.32
			c0.28-0.12,0.55-0.24,0.82-0.37c0.27-0.13,0.53-0.28,0.79-0.43c0.27-0.15,0.53-0.32,0.79-0.49c0.25-0.17,0.51-0.35,0.75-0.54
			c0.24-0.19,0.48-0.38,0.71-0.59c0.23-0.2,0.46-0.41,0.67-0.63c0.22-0.22,0.43-0.44,0.63-0.67c0.2-0.23,0.4-0.47,0.59-0.71
			c0.19-0.24,0.37-0.5,0.54-0.75c0.17-0.26,0.34-0.52,0.49-0.79c0.15-0.26,0.29-0.52,0.43-0.79c0.13-0.27,0.26-0.55,0.37-0.82
			c0.12-0.28,0.23-0.56,0.32-0.85c0.1-0.29,0.19-0.58,0.27-0.87c0.08-0.29,0.15-0.6,0.21-0.9c0.06-0.3,0.11-0.61,0.15-0.92
			c0.04-0.31,0.07-0.63,0.09-0.94c0.02-0.32,0.03-0.64,0.03-0.96c0-0.32-0.01-0.64-0.03-0.96c-0.02-0.31-0.05-0.63-0.09-0.94
			c-0.04-0.31-0.09-0.62-0.15-0.92c-0.06-0.3-0.13-0.6-0.21-0.9c-0.08-0.29-0.17-0.59-0.27-0.87c-0.1-0.29-0.21-0.57-0.32-0.85
			c-0.12-0.28-0.24-0.55-0.38-0.82c-0.13-0.27-0.28-0.53-0.43-0.79c-0.15-0.26-0.32-0.53-0.49-0.79c-0.17-0.25-0.35-0.51-0.54-0.75
			c-0.19-0.24-0.38-0.48-0.59-0.71c-0.2-0.23-0.41-0.46-0.63-0.67c-0.22-0.22-0.44-0.43-0.67-0.63c-0.23-0.2-0.47-0.4-0.71-0.59
			c-0.24-0.19-0.5-0.37-0.75-0.54c-0.26-0.17-0.52-0.34-0.79-0.49c-0.26-0.15-0.53-0.29-0.79-0.43c-0.27-0.13-0.54-0.26-0.82-0.37
			c-0.28-0.12-0.56-0.22-0.85-0.32c-0.29-0.1-0.58-0.19-0.87-0.27c-0.3-0.08-0.6-0.15-0.9-0.21c-0.3-0.06-0.61-0.11-0.92-0.15
			c-0.31-0.04-0.63-0.07-0.94-0.09c-0.63-0.04-1.28-0.04-1.91,0c-0.31,0.02-0.63,0.05-0.94,0.09c-0.31,0.04-0.62,0.09-0.92,0.15
			c-0.3,0.06-0.6,0.13-0.9,0.21c-0.47,0.13-0.96-0.15-1.09-0.62c-0.13-0.47,0.15-0.96,0.62-1.09c0.33-0.09,0.67-0.17,1.01-0.24
			c0.34-0.07,0.69-0.13,1.04-0.17c0.35-0.05,0.7-0.08,1.06-0.11c0.71-0.05,1.44-0.05,2.15,0c0.35,0.02,0.71,0.06,1.06,0.11
			c0.35,0.05,0.69,0.1,1.04,0.17c0.34,0.07,0.68,0.15,1.01,0.24c0.33,0.09,0.66,0.19,0.99,0.3c0.32,0.11,0.65,0.23,0.96,0.36
			c0.31,0.13,0.62,0.27,0.93,0.42c0.3,0.15,0.6,0.31,0.89,0.48c0.3,0.17,0.6,0.36,0.88,0.55c0.29,0.19,0.57,0.39,0.84,0.61
			c0.27,0.21,0.54,0.43,0.8,0.66c0.26,0.23,0.51,0.47,0.76,0.71c0.24,0.24,0.48,0.5,0.71,0.76c0.23,0.26,0.45,0.53,0.66,0.8
			c0.21,0.27,0.41,0.56,0.61,0.84c0.19,0.29,0.38,0.59,0.55,0.88c0.17,0.29,0.33,0.59,0.48,0.89c0.15,0.3,0.29,0.62,0.42,0.93
			c0.13,0.31,0.25,0.63,0.36,0.96c0.11,0.32,0.21,0.66,0.3,0.99c0.09,0.33,0.17,0.67,0.24,1.01c0.07,0.34,0.13,0.69,0.17,1.04
			c0.05,0.35,0.08,0.7,0.11,1.06c0.02,0.36,0.04,0.72,0.04,1.08s-0.01,0.72-0.04,1.08c-0.02,0.35-0.06,0.71-0.11,1.06
			c-0.05,0.35-0.11,0.7-0.17,1.04c-0.07,0.34-0.15,0.68-0.24,1.01c-0.09,0.33-0.19,0.66-0.3,0.99c-0.11,0.32-0.23,0.64-0.36,0.96
			c-0.13,0.31-0.27,0.62-0.42,0.93c-0.15,0.3-0.31,0.6-0.48,0.89c-0.17,0.3-0.36,0.6-0.55,0.88c-0.19,0.29-0.4,0.57-0.61,0.84
			c-0.21,0.27-0.43,0.54-0.66,0.8c-0.23,0.26-0.46,0.51-0.71,0.76c-0.24,0.24-0.5,0.48-0.76,0.71c-0.26,0.23-0.53,0.45-0.8,0.66
			c-0.27,0.21-0.56,0.41-0.84,0.61c-0.29,0.19-0.58,0.38-0.88,0.55c-0.29,0.17-0.59,0.33-0.89,0.48c-0.3,0.15-0.61,0.29-0.93,0.42
			c-0.31,0.13-0.63,0.25-0.96,0.36c-0.32,0.11-0.66,0.21-0.99,0.3c-0.33,0.09-0.67,0.17-1.01,0.24c-0.34,0.07-0.69,0.13-1.04,0.17
			c-0.35,0.05-0.7,0.08-1.06,0.11C57.06,38.54,56.7,38.55,56.34,38.55z"/>
	</g>
	<g>
		<path class="st0" d="M56.34,35.65c-0.29,0-0.59-0.01-0.88-0.03c-0.29-0.02-0.58-0.05-0.86-0.09c-0.28-0.04-0.57-0.09-0.85-0.14
			c-0.28-0.06-0.55-0.12-0.83-0.2c-0.27-0.07-0.54-0.16-0.81-0.25c-0.26-0.09-0.53-0.19-0.78-0.3c-0.25-0.11-0.51-0.22-0.76-0.35
			c-0.25-0.12-0.49-0.25-0.73-0.39c-0.24-0.14-0.49-0.29-0.72-0.45c-0.23-0.16-0.47-0.32-0.69-0.5c-0.22-0.17-0.44-0.35-0.66-0.54
			c-0.21-0.19-0.42-0.38-0.62-0.58c-0.2-0.2-0.39-0.41-0.58-0.62c-0.19-0.21-0.37-0.43-0.54-0.66c-0.17-0.22-0.34-0.46-0.5-0.69
			c-0.16-0.23-0.31-0.48-0.45-0.72c-0.14-0.24-0.27-0.48-0.39-0.73c-0.12-0.25-0.24-0.5-0.35-0.76c-0.11-0.26-0.21-0.52-0.3-0.78
			c-0.09-0.26-0.17-0.53-0.25-0.8c-0.07-0.27-0.14-0.55-0.2-0.83c-0.06-0.28-0.1-0.56-0.14-0.85c-0.04-0.29-0.07-0.58-0.09-0.86
			c-0.02-0.29-0.03-0.59-0.03-0.88c0-0.29,0.01-0.59,0.03-0.88c0.02-0.29,0.05-0.58,0.09-0.86c0.04-0.28,0.09-0.57,0.14-0.85
			c0.06-0.28,0.12-0.56,0.2-0.83c0.07-0.27,0.16-0.54,0.25-0.81c0.09-0.26,0.19-0.52,0.3-0.78c0.11-0.25,0.22-0.51,0.35-0.76
			c0.12-0.25,0.25-0.49,0.39-0.73c0.14-0.25,0.29-0.49,0.45-0.72c0.16-0.23,0.32-0.47,0.5-0.69c0.17-0.22,0.35-0.44,0.54-0.66
			c0.18-0.21,0.38-0.42,0.58-0.62c0.2-0.2,0.41-0.39,0.62-0.58c0.21-0.19,0.43-0.37,0.66-0.54c0.22-0.17,0.46-0.34,0.69-0.5
			c0.23-0.16,0.48-0.31,0.72-0.45c0.24-0.14,0.48-0.27,0.73-0.39c0.25-0.12,0.5-0.24,0.76-0.35c0.26-0.11,0.52-0.21,0.78-0.3
			c0.26-0.09,0.54-0.17,0.81-0.25c0.27-0.07,0.55-0.14,0.83-0.2c0.28-0.06,0.56-0.1,0.85-0.14c0.28-0.04,0.58-0.07,0.86-0.09
			c0.58-0.04,1.18-0.04,1.76,0c0.29,0.02,0.58,0.05,0.86,0.09c0.28,0.04,0.57,0.09,0.85,0.14c0.28,0.06,0.55,0.12,0.83,0.2
			c0.27,0.07,0.54,0.16,0.81,0.25c0.26,0.09,0.53,0.19,0.78,0.3c0.25,0.11,0.51,0.22,0.76,0.35c0.25,0.12,0.49,0.25,0.73,0.39
			c0.25,0.14,0.49,0.29,0.72,0.45c0.23,0.16,0.47,0.32,0.69,0.5c0.22,0.17,0.44,0.35,0.66,0.54c0.21,0.19,0.42,0.38,0.62,0.58
			c0.2,0.2,0.39,0.41,0.58,0.62c0.19,0.21,0.37,0.43,0.54,0.66c0.17,0.23,0.34,0.46,0.5,0.69c0.16,0.24,0.31,0.48,0.45,0.72
			c0.14,0.24,0.27,0.48,0.39,0.73c0.12,0.25,0.24,0.5,0.35,0.76c0.19,0.45-0.02,0.97-0.48,1.16c-0.45,0.19-0.97-0.02-1.16-0.48
			c-0.09-0.22-0.19-0.44-0.3-0.65c-0.11-0.21-0.22-0.42-0.34-0.63c-0.12-0.21-0.25-0.42-0.39-0.62c-0.13-0.2-0.28-0.4-0.43-0.6
			c-0.15-0.19-0.3-0.38-0.46-0.57c-0.16-0.18-0.33-0.36-0.5-0.53c-0.17-0.17-0.35-0.34-0.53-0.5c-0.18-0.16-0.37-0.32-0.57-0.47
			c-0.19-0.15-0.39-0.29-0.6-0.43c-0.2-0.14-0.41-0.27-0.62-0.39c-0.21-0.12-0.42-0.23-0.63-0.34c-0.21-0.11-0.43-0.21-0.65-0.3
			c-0.22-0.09-0.45-0.18-0.67-0.26c-0.23-0.08-0.46-0.15-0.69-0.21c-0.23-0.06-0.47-0.12-0.71-0.17c-0.24-0.05-0.49-0.09-0.73-0.12
			c-0.25-0.03-0.5-0.06-0.75-0.07c-0.5-0.03-1.02-0.03-1.52,0c-0.25,0.02-0.5,0.04-0.75,0.07c-0.24,0.03-0.49,0.07-0.73,0.12
			c-0.24,0.05-0.48,0.1-0.71,0.17c-0.23,0.06-0.47,0.14-0.69,0.21c-0.23,0.08-0.45,0.16-0.67,0.26c-0.22,0.09-0.44,0.19-0.65,0.3
			c-0.21,0.1-0.42,0.22-0.63,0.34c-0.21,0.12-0.42,0.25-0.62,0.39c-0.2,0.14-0.4,0.28-0.6,0.43c-0.19,0.15-0.38,0.31-0.57,0.47
			c-0.18,0.16-0.36,0.33-0.53,0.5c-0.17,0.17-0.34,0.35-0.5,0.53c-0.16,0.18-0.32,0.37-0.46,0.57c-0.15,0.19-0.29,0.39-0.43,0.6
			c-0.13,0.2-0.27,0.41-0.39,0.62c-0.12,0.21-0.23,0.42-0.34,0.63c-0.11,0.21-0.21,0.43-0.3,0.65c-0.09,0.22-0.18,0.45-0.26,0.67
			c-0.08,0.23-0.15,0.46-0.21,0.7c-0.06,0.23-0.12,0.47-0.17,0.71c-0.05,0.24-0.09,0.49-0.12,0.73c-0.03,0.25-0.06,0.5-0.07,0.75
			c-0.02,0.25-0.03,0.51-0.03,0.76s0.01,0.51,0.03,0.76c0.02,0.25,0.04,0.5,0.07,0.75c0.03,0.24,0.07,0.49,0.12,0.73
			c0.05,0.24,0.11,0.48,0.17,0.71c0.06,0.23,0.14,0.47,0.21,0.69c0.08,0.23,0.16,0.45,0.26,0.67c0.09,0.22,0.19,0.44,0.3,0.65
			c0.11,0.21,0.22,0.42,0.34,0.63c0.12,0.21,0.25,0.42,0.39,0.62c0.14,0.2,0.28,0.4,0.43,0.6c0.15,0.19,0.3,0.38,0.46,0.57
			c0.16,0.18,0.33,0.36,0.5,0.53c0.17,0.17,0.35,0.34,0.53,0.5c0.18,0.16,0.37,0.32,0.57,0.46c0.19,0.15,0.39,0.29,0.6,0.43
			c0.2,0.14,0.41,0.27,0.62,0.39c0.21,0.12,0.42,0.23,0.63,0.34c0.21,0.11,0.43,0.21,0.65,0.3c0.22,0.09,0.45,0.18,0.67,0.26
			c0.23,0.08,0.46,0.15,0.69,0.21c0.23,0.06,0.47,0.12,0.71,0.17c0.24,0.05,0.49,0.09,0.73,0.12c0.25,0.03,0.5,0.06,0.75,0.07
			c0.5,0.03,1.02,0.03,1.52,0c0.25-0.02,0.5-0.04,0.75-0.07c0.24-0.03,0.49-0.07,0.73-0.12c0.24-0.05,0.48-0.1,0.71-0.17
			c0.23-0.06,0.47-0.14,0.69-0.21c0.23-0.08,0.45-0.16,0.67-0.26c0.45-0.19,0.97,0.02,1.16,0.48c0.19,0.45-0.02,0.97-0.48,1.16
			c-0.26,0.11-0.52,0.21-0.78,0.3c-0.26,0.09-0.53,0.17-0.81,0.25c-0.27,0.07-0.55,0.14-0.83,0.2c-0.28,0.06-0.56,0.1-0.85,0.14
			c-0.29,0.04-0.58,0.07-0.86,0.09C56.93,35.64,56.63,35.65,56.34,35.65z"/>
	</g>
	<g>
		<path class="st0" d="M56.34,32.75c-0.49,0-0.89-0.4-0.89-0.89c0-0.49,0.4-0.89,0.89-0.89c0.19,0,0.38-0.01,0.56-0.02
			c0.18-0.01,0.37-0.03,0.55-0.06c0.18-0.02,0.36-0.05,0.54-0.09c0.18-0.04,0.35-0.08,0.53-0.13c0.17-0.05,0.35-0.1,0.51-0.16
			c0.17-0.06,0.34-0.12,0.5-0.19c0.16-0.07,0.33-0.14,0.48-0.22c0.16-0.08,0.31-0.16,0.47-0.25c0.16-0.09,0.31-0.19,0.46-0.29
			c0.15-0.1,0.3-0.21,0.44-0.32c0.14-0.11,0.28-0.23,0.42-0.34c0.14-0.12,0.27-0.24,0.4-0.37c0.13-0.13,0.25-0.26,0.37-0.4
			c0.12-0.14,0.23-0.28,0.34-0.42c0.11-0.14,0.22-0.29,0.32-0.44c0.1-0.15,0.2-0.31,0.29-0.46c0.09-0.15,0.17-0.31,0.25-0.47
			c0.08-0.16,0.15-0.32,0.22-0.48c0.07-0.16,0.13-0.33,0.19-0.5c0.06-0.17,0.11-0.34,0.16-0.51c0.05-0.17,0.09-0.35,0.13-0.53
			c0.04-0.18,0.07-0.36,0.09-0.54c0.02-0.18,0.04-0.37,0.06-0.55c0.01-0.19,0.02-0.38,0.02-0.56s-0.01-0.38-0.02-0.56
			c-0.01-0.18-0.03-0.37-0.06-0.55c-0.02-0.18-0.05-0.36-0.09-0.54c-0.04-0.18-0.08-0.35-0.13-0.53c-0.05-0.17-0.1-0.35-0.16-0.51
			c-0.06-0.17-0.12-0.34-0.19-0.5c-0.07-0.16-0.14-0.32-0.22-0.48c-0.08-0.16-0.16-0.31-0.25-0.47c-0.09-0.16-0.19-0.31-0.29-0.46
			c-0.1-0.15-0.21-0.3-0.32-0.44c-0.11-0.14-0.23-0.28-0.34-0.42c-0.12-0.14-0.24-0.27-0.37-0.4c-0.13-0.13-0.26-0.25-0.4-0.37
			c-0.14-0.12-0.28-0.23-0.42-0.34c-0.14-0.11-0.29-0.22-0.44-0.32c-0.15-0.1-0.31-0.2-0.46-0.29c-0.15-0.09-0.31-0.17-0.47-0.25
			c-0.16-0.08-0.32-0.15-0.48-0.22c-0.16-0.07-0.33-0.13-0.5-0.19c-0.17-0.06-0.34-0.11-0.51-0.16c-0.17-0.05-0.35-0.09-0.53-0.12
			c-0.18-0.04-0.36-0.07-0.54-0.09c-0.18-0.02-0.37-0.04-0.55-0.06c-0.37-0.02-0.75-0.02-1.13,0c-0.18,0.01-0.37,0.03-0.55,0.06
			c-0.18,0.02-0.36,0.05-0.54,0.09c-0.18,0.04-0.35,0.08-0.53,0.13c-0.17,0.05-0.35,0.1-0.51,0.16c-0.17,0.06-0.34,0.12-0.5,0.19
			c-0.16,0.07-0.33,0.14-0.48,0.22c-0.16,0.08-0.31,0.16-0.47,0.25c-0.16,0.09-0.31,0.19-0.46,0.29c-0.15,0.1-0.3,0.21-0.44,0.32
			c-0.14,0.11-0.29,0.23-0.42,0.34c-0.14,0.12-0.27,0.24-0.4,0.37c-0.13,0.13-0.25,0.26-0.37,0.4c-0.12,0.14-0.23,0.28-0.34,0.42
			c-0.11,0.14-0.22,0.29-0.32,0.44c-0.1,0.15-0.2,0.31-0.29,0.46c-0.09,0.15-0.17,0.31-0.25,0.47c-0.08,0.16-0.15,0.32-0.22,0.48
			c-0.07,0.16-0.13,0.33-0.19,0.5c-0.06,0.17-0.11,0.34-0.16,0.51c-0.05,0.17-0.09,0.35-0.13,0.53c-0.04,0.18-0.07,0.36-0.09,0.54
			c-0.02,0.18-0.04,0.37-0.06,0.55c-0.01,0.19-0.02,0.38-0.02,0.56s0.01,0.38,0.02,0.56c0.01,0.18,0.03,0.37,0.06,0.55
			c0.02,0.18,0.05,0.36,0.09,0.54c0.04,0.18,0.08,0.35,0.13,0.53c0.05,0.17,0.1,0.35,0.16,0.51c0.06,0.17,0.12,0.34,0.19,0.5
			c0.07,0.16,0.14,0.32,0.22,0.48c0.22,0.44,0.04,0.97-0.4,1.19c-0.44,0.22-0.97,0.04-1.19-0.4c-0.1-0.19-0.19-0.39-0.27-0.59
			c-0.08-0.2-0.16-0.4-0.23-0.61c-0.07-0.21-0.14-0.42-0.19-0.63c-0.06-0.21-0.11-0.43-0.15-0.64c-0.04-0.22-0.08-0.44-0.11-0.66
			c-0.03-0.22-0.05-0.45-0.07-0.67c-0.01-0.23-0.02-0.46-0.02-0.68c0-0.22,0.01-0.45,0.02-0.68c0.01-0.22,0.04-0.45,0.07-0.67
			c0.03-0.22,0.07-0.44,0.11-0.66c0.04-0.22,0.09-0.43,0.15-0.64c0.06-0.21,0.12-0.42,0.19-0.63c0.07-0.2,0.15-0.41,0.23-0.61
			c0.08-0.2,0.17-0.39,0.27-0.59c0.1-0.19,0.2-0.38,0.3-0.57c0.11-0.19,0.23-0.38,0.35-0.56c0.12-0.18,0.25-0.36,0.38-0.54
			c0.13-0.17,0.27-0.34,0.42-0.51c0.15-0.17,0.3-0.33,0.45-0.48c0.15-0.15,0.32-0.31,0.48-0.45c0.16-0.14,0.33-0.28,0.51-0.42
			c0.17-0.13,0.35-0.26,0.54-0.38c0.18-0.12,0.37-0.24,0.56-0.35c0.18-0.11,0.38-0.21,0.57-0.3c0.19-0.1,0.39-0.19,0.59-0.27
			c0.2-0.08,0.4-0.16,0.61-0.23c0.2-0.07,0.42-0.14,0.63-0.19c0.21-0.06,0.43-0.11,0.64-0.15c0.22-0.04,0.44-0.08,0.66-0.11
			c0.22-0.03,0.45-0.05,0.67-0.07c0.45-0.03,0.91-0.03,1.36,0c0.22,0.01,0.45,0.04,0.67,0.07c0.22,0.03,0.44,0.07,0.66,0.11
			c0.21,0.04,0.43,0.09,0.64,0.15c0.21,0.06,0.42,0.12,0.63,0.19c0.2,0.07,0.41,0.15,0.61,0.23c0.2,0.08,0.4,0.17,0.59,0.27
			c0.19,0.09,0.38,0.2,0.57,0.3c0.19,0.11,0.38,0.23,0.56,0.35c0.18,0.12,0.36,0.25,0.54,0.38c0.17,0.13,0.34,0.27,0.51,0.42
			c0.16,0.14,0.33,0.3,0.48,0.45c0.15,0.15,0.3,0.31,0.45,0.48c0.14,0.16,0.29,0.34,0.42,0.51c0.13,0.17,0.26,0.35,0.38,0.54
			c0.12,0.18,0.24,0.37,0.35,0.56c0.11,0.18,0.21,0.37,0.3,0.57c0.1,0.19,0.19,0.39,0.27,0.59c0.08,0.2,0.16,0.4,0.23,0.61
			c0.07,0.2,0.13,0.41,0.19,0.63c0.06,0.21,0.11,0.43,0.15,0.64c0.04,0.22,0.08,0.44,0.11,0.66c0.03,0.22,0.05,0.45,0.07,0.67
			c0.01,0.23,0.02,0.45,0.02,0.68s-0.01,0.46-0.02,0.68c-0.01,0.22-0.04,0.45-0.07,0.67c-0.03,0.22-0.07,0.44-0.11,0.66
			c-0.04,0.22-0.09,0.43-0.15,0.64c-0.06,0.21-0.12,0.42-0.19,0.63c-0.07,0.2-0.15,0.41-0.23,0.61c-0.08,0.2-0.17,0.39-0.27,0.59
			c-0.1,0.19-0.2,0.38-0.3,0.57c-0.11,0.19-0.23,0.38-0.35,0.56c-0.12,0.18-0.25,0.36-0.38,0.54c-0.13,0.17-0.27,0.34-0.42,0.51
			c-0.15,0.17-0.3,0.33-0.45,0.48c-0.15,0.15-0.32,0.31-0.48,0.45c-0.16,0.14-0.34,0.29-0.51,0.42c-0.17,0.13-0.35,0.26-0.54,0.38
			c-0.18,0.12-0.37,0.24-0.56,0.35c-0.19,0.11-0.38,0.21-0.57,0.3c-0.19,0.1-0.39,0.19-0.59,0.27c-0.2,0.08-0.4,0.16-0.61,0.23
			c-0.21,0.07-0.42,0.14-0.63,0.19c-0.21,0.06-0.43,0.11-0.64,0.15c-0.22,0.04-0.44,0.08-0.66,0.11c-0.22,0.03-0.45,0.05-0.67,0.07
			C56.8,32.74,56.57,32.75,56.34,32.75z"/>
	</g>
	<g>
		<path class="st0" d="M91.88,17.31h-4.08v-2.19h10.68v2.19h-4.14v12.22h-2.46V17.31z"/>
		<path class="st0" d="M97.34,24.6c0-2.92,2.07-5.11,5.2-5.11c3.04,0,5.2,2.07,5.2,5.11c0,3-2.15,5.09-5.2,5.09
			C99.41,29.7,97.34,27.5,97.34,24.6z M105.42,24.6c0-1.83-1.26-3.06-2.88-3.06c-1.73,0-2.88,1.34-2.88,3.06
			c0,1.68,1.18,3.02,2.88,3.02C104.14,27.63,105.42,26.39,105.42,24.6z"/>
		<path class="st0" d="M109.3,14.6h2.27v9.6l0.04,0.02l4.02-4.59h2.7l-3.57,3.98l3.63,5.93h-2.56l-2.66-4.36l-1.6,1.75v2.62h-2.27
			V14.6z"/>
		<path class="st0" d="M123.32,28.99l-4.06-9.36h2.44l2.72,6.64h0.04l2.54-6.64h2.33l-5.44,13.92h-2.35L123.32,28.99z"/>
		<path class="st0" d="M129.31,24.6c0-2.92,2.07-5.11,5.2-5.11c3.04,0,5.2,2.07,5.2,5.11c0,3-2.15,5.09-5.2,5.09
			C131.38,29.7,129.31,27.5,129.31,24.6z M137.39,24.6c0-1.83-1.26-3.06-2.88-3.06c-1.73,0-2.88,1.34-2.88,3.06
			c0,1.68,1.18,3.02,2.88,3.02C136.11,27.63,137.39,26.39,137.39,24.6z"/>
		<path class="st0" d="M145.06,15.12h2.62l3.09,10.39h0.04l2.82-10.39h2.6l2.8,10.37h0.04l3.11-10.37h2.6l-4.57,14.41h-2.29
			l-2.94-10.84h-0.04l-3,10.84h-2.29L145.06,15.12z"/>
		<path class="st0" d="M173.74,25.33h-7.23c0.28,1.44,1.36,2.29,2.9,2.29c1.18,0,1.99-0.53,2.5-1.16l1.58,1.36
			c-0.83,1.08-2.07,1.87-4.2,1.87c-3,0-5.13-2.01-5.13-5.11c0-3.04,2.07-5.09,4.97-5.09c2.78,0,4.67,2.09,4.67,4.97
			C173.8,24.82,173.76,25.17,173.74,25.33z M166.55,23.55h4.95c-0.28-1.2-1.1-2.01-2.39-2.01
			C167.85,21.54,166.88,22.25,166.55,23.55z"/>
		<path class="st0" d="M174.51,28.25l1.14-1.7c0.79,0.77,1.64,1.16,2.86,1.16c0.87,0,1.38-0.39,1.38-0.97c0-0.51-0.65-0.75-1.95-1.2
			c-1.62-0.57-3.02-1.3-3.02-3.25c0-1.62,1.46-2.8,3.49-2.8c1.26,0,2.4,0.35,3.49,1.24l-1.14,1.79c-0.79-0.75-1.71-1.06-2.48-1.06
			c-0.45,0-1.08,0.24-1.08,0.85c0,0.49,0.61,0.83,1.56,1.2c2.11,0.83,3.43,1.22,3.43,3.19c0,1.66-1.18,3-3.69,3
			C176.9,29.7,175.54,29.17,174.51,28.25z"/>
		<path class="st0" d="M183.83,26.41v-4.85h-1.22v-1.93h1.22v-3.29l2.27-0.24v3.53h2.9v1.93h-2.9v4.63c0,1.01,0.3,1.38,0.95,1.38
			c0.39,0,0.93-0.14,1.46-0.43l0.59,1.97c-0.59,0.32-1.22,0.59-2.52,0.59C184.88,29.7,183.83,28.62,183.83,26.41z"/>
	</g>
</g>
<g>
</g>
<g>
</g>
<g>
</g>
<g>
</g>
<g>
</g>
<g>
</g>
<g>
</g>
<g>
</g>
<g>
</g>
<g>
</g>
<g>
</g>
<g>
</g>
<g>
</g>
<g>
</g>
<g>
</g>
</svg>
