<?xml version="1.0" encoding="utf-8"?>
<!-- Generator: Adobe Illustrator 25.2.0, SVG Export Plug-In . SVG Version: 6.00 Build 0)  -->
<svg version="1.1" id="レイヤー_1" xmlns="http://www.w3.org/2000/svg" xmlns:xlink="http://www.w3.org/1999/xlink" x="0px"
	 y="0px" width="200px" height="45px" viewBox="0 0 200 45" style="enable-background:new 0 0 200 45;" xml:space="preserve">
<style type="text/css">
	.st0{fill:#FFFFFF;}
	.st1{fill:#FF346E;}
	.st2{fill:#F3836F;}
	.st3{fill:#EECB48;}
	.st4{fill:#31AB8E;}
</style>
<g>
	<path class="st0" d="M30.17,39.35H10.34V24.01h15.7c0.65,0,1.18-0.53,1.18-1.18c0-0.65-0.53-1.18-1.18-1.18h-15.7V6.25H29
		c0.65,0,1.18-0.53,1.18-1.18c0-0.65-0.53-1.18-1.18-1.18H9.16c-0.65,0-1.18,0.53-1.18,1.18v35.46c0,0.65,0.53,1.18,1.18,1.18h21.01
		c0.65,0,1.18-0.53,1.18-1.18C31.35,39.88,30.83,39.35,30.17,39.35z"/>
	<g>
		<path class="st0" d="M52.88,43.67c-0.47,0-0.95-0.02-1.42-0.05c-0.47-0.03-0.94-0.08-1.4-0.14c-0.46-0.06-0.92-0.14-1.37-0.23
			c-0.45-0.09-0.9-0.2-1.34-0.32c-0.44-0.12-0.88-0.25-1.3-0.4c-0.43-0.15-0.85-0.31-1.27-0.48c-0.41-0.17-0.82-0.36-1.23-0.56
			c-0.4-0.2-0.8-0.41-1.18-0.63c-0.4-0.23-0.79-0.47-1.17-0.73c-0.38-0.25-0.75-0.52-1.12-0.8c-0.36-0.28-0.72-0.57-1.06-0.87
			c-0.34-0.3-0.68-0.62-1-0.94c-0.32-0.32-0.64-0.66-0.94-1c-0.3-0.34-0.59-0.7-0.87-1.06c-0.28-0.36-0.55-0.74-0.8-1.12
			c-0.26-0.38-0.5-0.78-0.73-1.17c-0.22-0.38-0.44-0.78-0.63-1.18c-0.2-0.4-0.39-0.81-0.56-1.23c-0.17-0.42-0.34-0.84-0.48-1.27
			c-0.15-0.43-0.28-0.87-0.4-1.3c-0.12-0.44-0.23-0.89-0.32-1.34c-0.09-0.45-0.17-0.91-0.23-1.37c-0.06-0.46-0.11-0.93-0.14-1.4
			c-0.03-0.47-0.05-0.95-0.05-1.42s0.02-0.95,0.05-1.42c0.03-0.47,0.08-0.94,0.14-1.4c0.06-0.46,0.14-0.92,0.23-1.37
			c0.09-0.45,0.2-0.9,0.32-1.34c0.12-0.44,0.25-0.88,0.4-1.3c0.15-0.43,0.31-0.85,0.48-1.27c0.17-0.41,0.36-0.83,0.56-1.23
			c0.2-0.4,0.41-0.8,0.63-1.18c0.23-0.39,0.47-0.79,0.73-1.17c0.25-0.38,0.52-0.75,0.8-1.12c0.28-0.36,0.57-0.72,0.87-1.06
			c0.3-0.34,0.62-0.68,0.94-1c0.32-0.32,0.66-0.64,1-0.94c0.34-0.3,0.7-0.59,1.06-0.87c0.36-0.28,0.74-0.55,1.12-0.8
			c0.38-0.25,0.77-0.5,1.17-0.73c0.39-0.22,0.78-0.44,1.18-0.63c0.4-0.2,0.81-0.39,1.23-0.56c0.41-0.17,0.84-0.34,1.27-0.48
			c0.43-0.15,0.87-0.28,1.3-0.4c0.44-0.12,0.89-0.23,1.34-0.32C49.14,2,49.6,1.92,50.06,1.86c0.46-0.06,0.93-0.11,1.4-0.14
			c0.94-0.06,1.9-0.06,2.85,0c0.47,0.03,0.94,0.08,1.4,0.14c0.46,0.06,0.92,0.14,1.37,0.23c0.45,0.09,0.9,0.2,1.34,0.32
			c0.44,0.12,0.88,0.25,1.3,0.4c0.42,0.15,0.85,0.31,1.27,0.48c0.44,0.18,0.64,0.69,0.46,1.12c-0.18,0.44-0.69,0.64-1.12,0.46
			c-0.38-0.16-0.77-0.31-1.16-0.44c-0.39-0.13-0.8-0.26-1.2-0.37c-0.4-0.11-0.82-0.21-1.23-0.29c-0.41-0.08-0.84-0.15-1.26-0.21
			c-0.42-0.06-0.86-0.1-1.28-0.13c-0.87-0.06-1.75-0.06-2.62,0c-0.43,0.03-0.86,0.07-1.28,0.13c-0.42,0.06-0.84,0.13-1.26,0.21
			c-0.41,0.08-0.82,0.18-1.23,0.29c-0.4,0.11-0.8,0.23-1.2,0.37c-0.39,0.13-0.78,0.28-1.16,0.44c-0.38,0.16-0.76,0.33-1.12,0.51
			c-0.37,0.18-0.73,0.38-1.08,0.58c-0.36,0.21-0.72,0.44-1.07,0.67c-0.35,0.23-0.69,0.48-1.03,0.74c-0.33,0.26-0.66,0.52-0.97,0.8
			c-0.31,0.28-0.62,0.57-0.92,0.86c-0.3,0.3-0.59,0.61-0.86,0.92c-0.28,0.32-0.55,0.64-0.8,0.97c-0.26,0.33-0.5,0.68-0.74,1.03
			c-0.23,0.35-0.46,0.71-0.67,1.07c-0.2,0.35-0.4,0.72-0.58,1.08c-0.18,0.37-0.35,0.75-0.51,1.12c-0.16,0.38-0.31,0.77-0.44,1.16
			c-0.13,0.39-0.26,0.8-0.37,1.2c-0.11,0.41-0.21,0.82-0.29,1.23c-0.08,0.41-0.15,0.84-0.21,1.26c-0.06,0.42-0.1,0.86-0.13,1.28
			c-0.03,0.43-0.04,0.87-0.04,1.31s0.01,0.88,0.04,1.31c0.03,0.43,0.07,0.86,0.13,1.28c0.06,0.42,0.13,0.84,0.21,1.26
			c0.08,0.41,0.18,0.82,0.29,1.23c0.11,0.4,0.23,0.8,0.37,1.2c0.13,0.39,0.28,0.78,0.44,1.16c0.16,0.38,0.33,0.76,0.51,1.12
			c0.18,0.37,0.38,0.73,0.58,1.08c0.21,0.36,0.43,0.72,0.67,1.07c0.23,0.35,0.48,0.69,0.74,1.03c0.25,0.33,0.52,0.66,0.8,0.97
			c0.27,0.31,0.56,0.62,0.86,0.92c0.3,0.3,0.6,0.58,0.92,0.86c0.31,0.28,0.64,0.55,0.97,0.8c0.33,0.26,0.68,0.5,1.03,0.74
			c0.35,0.23,0.71,0.46,1.07,0.67c0.35,0.2,0.72,0.4,1.08,0.58c0.37,0.18,0.75,0.35,1.12,0.51c0.38,0.16,0.77,0.31,1.16,0.44
			c0.39,0.13,0.8,0.26,1.2,0.37c0.4,0.11,0.82,0.21,1.23,0.29c0.41,0.08,0.84,0.15,1.26,0.21c0.42,0.06,0.86,0.1,1.28,0.13
			c0.87,0.06,1.75,0.06,2.62,0c0.43-0.03,0.86-0.07,1.28-0.13c0.42-0.06,0.84-0.13,1.26-0.21c0.41-0.08,0.82-0.18,1.23-0.29
			c0.4-0.11,0.8-0.23,1.2-0.37c0.39-0.13,0.78-0.28,1.16-0.44c0.38-0.16,0.76-0.33,1.12-0.51c0.37-0.18,0.73-0.38,1.08-0.58
			c0.36-0.21,0.72-0.44,1.07-0.67c0.35-0.23,0.69-0.48,1.03-0.74c0.33-0.25,0.66-0.52,0.97-0.8c0.31-0.28,0.62-0.57,0.92-0.86
			c0.3-0.3,0.59-0.6,0.86-0.92c0.28-0.31,0.54-0.64,0.8-0.97c0.26-0.33,0.5-0.68,0.74-1.03c0.23-0.35,0.46-0.71,0.67-1.07
			c0.2-0.35,0.4-0.72,0.58-1.08c0.18-0.37,0.35-0.75,0.51-1.12c0.16-0.38,0.31-0.77,0.44-1.16c0.13-0.39,0.26-0.8,0.37-1.2
			c0.11-0.41,0.21-0.82,0.29-1.23c0.08-0.41,0.15-0.84,0.21-1.26c0.06-0.42,0.1-0.86,0.13-1.28c0.03-0.43,0.04-0.87,0.04-1.31
			s-0.01-0.88-0.04-1.31c-0.03-0.43-0.07-0.86-0.13-1.28c-0.06-0.42-0.13-0.84-0.21-1.26c-0.08-0.41-0.18-0.82-0.29-1.23
			c-0.11-0.4-0.23-0.8-0.37-1.2c-0.13-0.39-0.28-0.78-0.44-1.16c-0.16-0.38-0.33-0.76-0.51-1.12c-0.21-0.43-0.04-0.94,0.39-1.15
			c0.43-0.21,0.94-0.04,1.15,0.39c0.2,0.4,0.39,0.81,0.56,1.23c0.17,0.41,0.33,0.84,0.48,1.27c0.15,0.43,0.28,0.87,0.4,1.3
			c0.12,0.44,0.23,0.89,0.32,1.34c0.09,0.45,0.17,0.91,0.23,1.37c0.06,0.46,0.11,0.93,0.14,1.4c0.03,0.47,0.05,0.95,0.05,1.42
			s-0.02,0.95-0.05,1.42c-0.03,0.47-0.08,0.94-0.14,1.4c-0.06,0.46-0.14,0.92-0.23,1.37c-0.09,0.45-0.2,0.9-0.32,1.34
			c-0.12,0.44-0.25,0.88-0.4,1.3c-0.15,0.42-0.31,0.85-0.48,1.27c-0.17,0.41-0.36,0.82-0.56,1.22c-0.2,0.4-0.41,0.8-0.63,1.18
			c-0.23,0.39-0.47,0.79-0.73,1.17c-0.25,0.38-0.52,0.76-0.8,1.12c-0.28,0.36-0.57,0.72-0.87,1.06c-0.3,0.34-0.62,0.68-0.94,1
			c-0.32,0.32-0.66,0.64-1,0.94c-0.34,0.3-0.7,0.59-1.06,0.87c-0.36,0.28-0.74,0.55-1.12,0.8c-0.38,0.25-0.77,0.5-1.17,0.73
			C63,41.09,62.6,41.3,62.2,41.5c-0.4,0.2-0.81,0.39-1.22,0.56c-0.42,0.17-0.84,0.34-1.27,0.48c-0.43,0.15-0.87,0.28-1.3,0.4
			c-0.44,0.12-0.89,0.23-1.34,0.32c-0.45,0.09-0.91,0.17-1.37,0.23c-0.46,0.06-0.93,0.11-1.4,0.14
			C53.83,43.65,53.36,43.67,52.88,43.67z"/>
	</g>
	<g>
		<path class="st1" d="M52.88,40.86c-0.47,0-0.86-0.38-0.86-0.86s0.38-0.86,0.86-0.86c0.37,0,0.75-0.01,1.12-0.04
			c0.37-0.02,0.73-0.06,1.1-0.11c0.36-0.05,0.72-0.11,1.07-0.18c0.35-0.07,0.7-0.15,1.05-0.25c0.34-0.09,0.69-0.2,1.02-0.31
			c0.33-0.11,0.67-0.24,0.99-0.38c0.32-0.13,0.65-0.28,0.96-0.44c0.31-0.16,0.62-0.32,0.93-0.5c0.31-0.18,0.62-0.37,0.92-0.57
			c0.3-0.2,0.59-0.41,0.88-0.63c0.28-0.22,0.56-0.45,0.83-0.68c0.27-0.24,0.53-0.48,0.79-0.74c0.25-0.25,0.5-0.52,0.74-0.79
			c0.24-0.27,0.47-0.55,0.68-0.83c0.22-0.28,0.43-0.58,0.63-0.88c0.2-0.3,0.39-0.61,0.57-0.92c0.17-0.3,0.34-0.61,0.5-0.93
			c0.16-0.31,0.3-0.64,0.44-0.96c0.14-0.33,0.26-0.66,0.38-0.99c0.11-0.33,0.22-0.68,0.31-1.02c0.09-0.34,0.18-0.7,0.25-1.05
			c0.07-0.35,0.13-0.71,0.18-1.07c0.05-0.36,0.09-0.73,0.11-1.1c0.02-0.37,0.04-0.75,0.04-1.12s-0.01-0.75-0.04-1.12
			c-0.02-0.37-0.06-0.73-0.11-1.1c-0.05-0.36-0.11-0.72-0.18-1.07c-0.07-0.35-0.15-0.7-0.25-1.05c-0.09-0.34-0.2-0.69-0.31-1.02
			c-0.11-0.33-0.24-0.67-0.38-0.99c-0.13-0.32-0.28-0.65-0.44-0.96c-0.16-0.31-0.32-0.62-0.5-0.93c-0.18-0.31-0.37-0.62-0.57-0.92
			c-0.2-0.3-0.41-0.59-0.63-0.88c-0.22-0.28-0.45-0.56-0.68-0.83c-0.24-0.27-0.48-0.53-0.74-0.79c-0.25-0.25-0.52-0.5-0.79-0.74
			c-0.27-0.24-0.55-0.47-0.83-0.68c-0.28-0.22-0.58-0.43-0.88-0.63c-0.3-0.2-0.61-0.39-0.92-0.57c-0.3-0.17-0.61-0.34-0.93-0.5
			c-0.31-0.16-0.64-0.3-0.96-0.44c-0.33-0.14-0.66-0.26-0.99-0.38c-0.34-0.12-0.68-0.22-1.02-0.31c-0.34-0.09-0.7-0.18-1.05-0.25
			c-0.35-0.07-0.72-0.13-1.07-0.18C54.73,6.3,54.37,6.26,54,6.24c-0.74-0.05-1.5-0.05-2.24,0c-0.37,0.02-0.73,0.06-1.1,0.11
			c-0.36,0.05-0.72,0.11-1.07,0.18c-0.35,0.07-0.7,0.15-1.05,0.25c-0.34,0.09-0.69,0.2-1.02,0.31c-0.33,0.11-0.67,0.24-0.99,0.38
			c-0.32,0.14-0.65,0.28-0.96,0.44c-0.31,0.15-0.62,0.32-0.93,0.5c-0.31,0.18-0.62,0.37-0.92,0.57c-0.3,0.2-0.59,0.41-0.88,0.63
			c-0.28,0.22-0.56,0.45-0.83,0.68c-0.27,0.24-0.53,0.48-0.79,0.74c-0.25,0.25-0.5,0.52-0.74,0.79c-0.24,0.27-0.47,0.55-0.68,0.83
			c-0.22,0.28-0.43,0.58-0.63,0.88c-0.2,0.3-0.39,0.61-0.57,0.92c-0.17,0.3-0.34,0.61-0.5,0.93c-0.16,0.31-0.3,0.64-0.44,0.96
			c-0.14,0.32-0.26,0.66-0.38,0.99c-0.11,0.33-0.22,0.68-0.31,1.02c-0.09,0.35-0.18,0.7-0.25,1.05c-0.07,0.35-0.13,0.71-0.18,1.07
			c-0.05,0.36-0.09,0.73-0.11,1.1c-0.02,0.37-0.04,0.75-0.04,1.12s0.01,0.75,0.04,1.12c0.02,0.37,0.06,0.73,0.11,1.1
			c0.05,0.36,0.11,0.72,0.18,1.07c0.07,0.35,0.15,0.7,0.25,1.05c0.09,0.34,0.2,0.69,0.31,1.02c0.11,0.33,0.24,0.67,0.38,0.99
			c0.14,0.32,0.28,0.65,0.44,0.96c0.21,0.43,0.04,0.94-0.39,1.15c-0.43,0.21-0.94,0.04-1.15-0.39c-0.17-0.35-0.33-0.7-0.48-1.06
			c-0.15-0.36-0.29-0.73-0.42-1.1c-0.13-0.37-0.24-0.75-0.35-1.13c-0.1-0.38-0.2-0.77-0.27-1.16c-0.08-0.39-0.15-0.79-0.2-1.19
			c-0.05-0.4-0.09-0.81-0.12-1.21c-0.03-0.41-0.04-0.82-0.04-1.23s0.01-0.82,0.04-1.23c0.03-0.4,0.07-0.81,0.12-1.21
			c0.05-0.4,0.12-0.8,0.2-1.19c0.08-0.39,0.17-0.78,0.27-1.16c0.1-0.38,0.22-0.76,0.35-1.13c0.13-0.37,0.27-0.74,0.42-1.1
			c0.15-0.36,0.31-0.72,0.48-1.06c0.17-0.35,0.36-0.69,0.55-1.02c0.2-0.34,0.41-0.68,0.63-1.01c0.22-0.33,0.45-0.65,0.69-0.97
			c0.24-0.31,0.49-0.62,0.75-0.92c0.26-0.3,0.53-0.59,0.81-0.87c0.28-0.28,0.57-0.55,0.87-0.81c0.3-0.26,0.61-0.51,0.92-0.75
			c0.31-0.24,0.64-0.47,0.97-0.69c0.33-0.22,0.67-0.43,1.01-0.63c0.33-0.19,0.68-0.38,1.02-0.55c0.35-0.17,0.7-0.33,1.06-0.48
			c0.36-0.15,0.73-0.29,1.1-0.42c0.37-0.13,0.75-0.24,1.13-0.35c0.38-0.1,0.77-0.2,1.16-0.27c0.39-0.08,0.79-0.15,1.19-0.2
			c0.4-0.05,0.81-0.09,1.21-0.12c0.81-0.05,1.65-0.05,2.46,0c0.4,0.03,0.81,0.07,1.21,0.12c0.4,0.05,0.8,0.12,1.19,0.2
			c0.39,0.08,0.78,0.17,1.16,0.27c0.38,0.1,0.76,0.22,1.13,0.35c0.37,0.13,0.74,0.27,1.1,0.42c0.36,0.15,0.71,0.31,1.06,0.48
			c0.34,0.17,0.69,0.36,1.02,0.55c0.34,0.2,0.68,0.41,1.01,0.63c0.33,0.22,0.65,0.45,0.97,0.69c0.31,0.24,0.62,0.49,0.92,0.75
			c0.3,0.26,0.59,0.53,0.87,0.81c0.28,0.28,0.55,0.57,0.81,0.87c0.26,0.3,0.51,0.61,0.75,0.92c0.24,0.31,0.47,0.64,0.69,0.97
			c0.22,0.33,0.43,0.67,0.63,1.01c0.19,0.33,0.38,0.68,0.55,1.02c0.17,0.35,0.33,0.7,0.48,1.06c0.15,0.36,0.29,0.73,0.42,1.1
			c0.13,0.37,0.24,0.75,0.35,1.13c0.1,0.38,0.2,0.77,0.27,1.16c0.08,0.39,0.15,0.79,0.2,1.19c0.05,0.4,0.09,0.81,0.12,1.21
			c0.03,0.41,0.04,0.82,0.04,1.23c0,0.41-0.01,0.83-0.04,1.23c-0.03,0.4-0.07,0.81-0.12,1.21c-0.05,0.4-0.12,0.8-0.2,1.19
			c-0.08,0.39-0.17,0.78-0.27,1.16c-0.1,0.38-0.22,0.76-0.35,1.13c-0.13,0.37-0.27,0.74-0.42,1.1c-0.15,0.36-0.31,0.72-0.48,1.06
			c-0.17,0.35-0.36,0.69-0.55,1.02c-0.2,0.34-0.41,0.69-0.63,1.01c-0.22,0.33-0.45,0.65-0.69,0.97c-0.24,0.31-0.49,0.62-0.75,0.92
			c-0.26,0.3-0.53,0.59-0.81,0.87c-0.28,0.28-0.57,0.55-0.87,0.81c-0.3,0.26-0.61,0.51-0.92,0.75c-0.31,0.24-0.64,0.47-0.97,0.69
			c-0.33,0.22-0.67,0.43-1.01,0.63c-0.33,0.19-0.68,0.38-1.02,0.55c-0.35,0.17-0.7,0.33-1.06,0.48c-0.36,0.15-0.73,0.29-1.1,0.42
			c-0.37,0.13-0.75,0.24-1.13,0.35c-0.38,0.1-0.77,0.2-1.16,0.27c-0.39,0.08-0.79,0.15-1.19,0.2c-0.4,0.05-0.81,0.09-1.21,0.12
			C53.71,40.85,53.29,40.86,52.88,40.86z"/>
	</g>
	<g>
		<path class="st2" d="M52.88,38.05c-0.35,0-0.7-0.01-1.04-0.03c-0.34-0.02-0.69-0.06-1.02-0.1c-0.33-0.04-0.67-0.1-1-0.17
			c-0.33-0.07-0.66-0.14-0.98-0.23c-0.32-0.09-0.64-0.19-0.95-0.29c-0.31-0.11-0.62-0.23-0.93-0.35c-0.3-0.13-0.6-0.26-0.9-0.41
			c-0.29-0.14-0.58-0.3-0.87-0.46c-0.29-0.17-0.58-0.35-0.86-0.53c-0.28-0.19-0.55-0.38-0.82-0.59c-0.26-0.2-0.52-0.42-0.78-0.64
			c-0.25-0.22-0.5-0.45-0.73-0.69c-0.24-0.24-0.47-0.48-0.69-0.73c-0.22-0.25-0.43-0.51-0.64-0.78c-0.2-0.26-0.4-0.54-0.59-0.82
			c-0.19-0.28-0.37-0.57-0.53-0.86c-0.16-0.28-0.32-0.57-0.46-0.86c-0.15-0.3-0.28-0.6-0.41-0.9c-0.13-0.3-0.24-0.61-0.35-0.93
			c-0.11-0.31-0.21-0.64-0.29-0.96c-0.09-0.32-0.17-0.65-0.23-0.98c-0.07-0.33-0.12-0.67-0.17-1c-0.05-0.34-0.08-0.68-0.1-1.02
			c-0.02-0.35-0.03-0.7-0.03-1.04c0-0.35,0.01-0.7,0.03-1.04c0.02-0.34,0.06-0.69,0.1-1.02c0.04-0.33,0.1-0.67,0.17-1
			c0.07-0.33,0.14-0.66,0.23-0.98c0.12-0.46,0.6-0.73,1.05-0.6c0.46,0.12,0.73,0.6,0.6,1.05c-0.08,0.29-0.15,0.58-0.21,0.87
			c-0.06,0.3-0.11,0.59-0.15,0.89c-0.04,0.3-0.07,0.61-0.09,0.91c-0.02,0.31-0.03,0.62-0.03,0.93c0,0.31,0.01,0.62,0.03,0.93
			c0.02,0.3,0.05,0.61,0.09,0.91c0.04,0.3,0.09,0.6,0.15,0.89c0.06,0.29,0.13,0.58,0.21,0.87c0.08,0.28,0.16,0.57,0.26,0.85
			c0.1,0.28,0.2,0.55,0.31,0.82c0.11,0.27,0.23,0.53,0.36,0.8c0.13,0.26,0.27,0.52,0.41,0.77c0.15,0.26,0.31,0.51,0.47,0.76
			c0.17,0.25,0.34,0.49,0.52,0.73c0.18,0.24,0.37,0.47,0.57,0.69c0.2,0.22,0.4,0.44,0.61,0.65c0.21,0.21,0.43,0.41,0.65,0.61
			c0.22,0.2,0.46,0.39,0.69,0.57c0.24,0.18,0.48,0.36,0.73,0.52c0.25,0.16,0.5,0.32,0.76,0.47c0.25,0.14,0.51,0.28,0.77,0.41
			c0.26,0.13,0.53,0.25,0.8,0.36c0.27,0.11,0.55,0.22,0.82,0.31c0.28,0.1,0.56,0.18,0.85,0.26c0.29,0.08,0.58,0.15,0.87,0.21
			c0.29,0.06,0.59,0.11,0.89,0.15c0.3,0.04,0.61,0.07,0.91,0.09c0.61,0.04,1.24,0.04,1.85,0c0.3-0.02,0.61-0.05,0.91-0.09
			c0.3-0.04,0.6-0.09,0.89-0.15c0.29-0.06,0.58-0.13,0.87-0.21c0.28-0.08,0.57-0.16,0.85-0.26c0.28-0.1,0.55-0.2,0.82-0.31
			c0.27-0.11,0.54-0.23,0.8-0.36c0.26-0.13,0.52-0.27,0.77-0.41c0.26-0.15,0.51-0.31,0.76-0.47c0.25-0.16,0.49-0.34,0.73-0.52
			c0.24-0.18,0.47-0.37,0.69-0.57c0.22-0.2,0.44-0.4,0.65-0.61c0.21-0.21,0.42-0.43,0.61-0.65c0.2-0.22,0.39-0.46,0.57-0.69
			c0.18-0.24,0.36-0.48,0.52-0.73c0.17-0.25,0.33-0.5,0.47-0.76c0.14-0.25,0.28-0.51,0.41-0.77c0.13-0.26,0.25-0.53,0.36-0.8
			c0.11-0.27,0.22-0.55,0.31-0.82c0.1-0.28,0.18-0.56,0.26-0.85c0.08-0.28,0.15-0.58,0.21-0.87c0.06-0.29,0.11-0.59,0.15-0.89
			c0.04-0.3,0.07-0.61,0.09-0.91c0.02-0.31,0.03-0.62,0.03-0.93c0-0.31-0.01-0.62-0.03-0.93c-0.02-0.3-0.05-0.61-0.09-0.91
			c-0.04-0.3-0.09-0.6-0.15-0.89c-0.06-0.29-0.13-0.58-0.21-0.87c-0.08-0.28-0.16-0.57-0.26-0.85c-0.1-0.28-0.2-0.55-0.31-0.82
			c-0.11-0.27-0.23-0.53-0.36-0.8c-0.13-0.26-0.27-0.52-0.41-0.77c-0.15-0.26-0.31-0.51-0.47-0.76c-0.16-0.25-0.34-0.49-0.52-0.73
			c-0.18-0.24-0.37-0.47-0.57-0.69c-0.2-0.22-0.4-0.44-0.61-0.65c-0.21-0.21-0.43-0.41-0.65-0.61c-0.22-0.2-0.45-0.39-0.69-0.57
			c-0.24-0.18-0.48-0.36-0.73-0.52c-0.25-0.17-0.5-0.33-0.76-0.47c-0.25-0.15-0.51-0.28-0.77-0.41c-0.26-0.13-0.53-0.25-0.8-0.36
			c-0.27-0.11-0.55-0.22-0.82-0.31c-0.28-0.1-0.56-0.18-0.85-0.26c-0.29-0.08-0.58-0.15-0.87-0.21c-0.29-0.06-0.59-0.11-0.89-0.15
			c-0.3-0.04-0.61-0.07-0.91-0.09C53.2,9,52.57,9,51.96,9.04c-0.3,0.02-0.61,0.05-0.91,0.09c-0.3,0.04-0.6,0.09-0.89,0.15
			c-0.29,0.06-0.58,0.13-0.87,0.21c-0.46,0.12-0.93-0.15-1.05-0.6c-0.12-0.46,0.15-0.93,0.6-1.05c0.32-0.09,0.65-0.17,0.98-0.23
			c0.33-0.07,0.67-0.12,1-0.17c0.34-0.05,0.68-0.08,1.02-0.1c0.69-0.05,1.39-0.05,2.08,0c0.34,0.02,0.69,0.06,1.02,0.1
			c0.34,0.05,0.67,0.1,1,0.17c0.33,0.07,0.66,0.14,0.98,0.23c0.32,0.09,0.64,0.19,0.95,0.29c0.31,0.11,0.62,0.23,0.93,0.35
			c0.3,0.13,0.6,0.26,0.9,0.41c0.29,0.14,0.58,0.3,0.86,0.46c0.29,0.17,0.58,0.35,0.86,0.53c0.28,0.19,0.55,0.38,0.82,0.59
			c0.27,0.2,0.53,0.42,0.78,0.64c0.25,0.22,0.5,0.45,0.73,0.69c0.24,0.24,0.47,0.48,0.69,0.73c0.22,0.25,0.43,0.51,0.64,0.78
			c0.2,0.27,0.4,0.54,0.59,0.82c0.19,0.28,0.37,0.57,0.53,0.86c0.16,0.28,0.32,0.57,0.46,0.86c0.15,0.3,0.28,0.6,0.41,0.9
			c0.13,0.3,0.24,0.61,0.35,0.93c0.11,0.31,0.21,0.64,0.29,0.96c0.09,0.32,0.17,0.65,0.23,0.98c0.07,0.33,0.12,0.67,0.17,1
			c0.05,0.34,0.08,0.68,0.1,1.02c0.02,0.34,0.03,0.69,0.03,1.04c0,0.35-0.01,0.7-0.03,1.04c-0.02,0.34-0.06,0.68-0.1,1.02
			c-0.05,0.34-0.1,0.67-0.17,1c-0.07,0.33-0.14,0.66-0.23,0.98c-0.09,0.32-0.19,0.64-0.29,0.95c-0.11,0.31-0.23,0.62-0.35,0.93
			c-0.13,0.3-0.26,0.6-0.41,0.9c-0.15,0.29-0.3,0.58-0.46,0.87c-0.17,0.29-0.35,0.58-0.53,0.86c-0.19,0.28-0.38,0.55-0.59,0.82
			c-0.2,0.26-0.42,0.53-0.64,0.78c-0.22,0.25-0.45,0.5-0.69,0.73c-0.24,0.24-0.48,0.47-0.73,0.69c-0.25,0.22-0.51,0.43-0.78,0.64
			c-0.27,0.2-0.54,0.4-0.82,0.59c-0.28,0.19-0.57,0.37-0.86,0.53c-0.28,0.16-0.57,0.32-0.87,0.46c-0.29,0.15-0.59,0.28-0.9,0.41
			c-0.3,0.13-0.61,0.25-0.93,0.35c-0.31,0.11-0.64,0.21-0.95,0.29c-0.32,0.09-0.65,0.17-0.98,0.23c-0.33,0.07-0.67,0.12-1,0.17
			c-0.34,0.05-0.68,0.08-1.02,0.1C53.58,38.04,53.23,38.05,52.88,38.05z"/>
	</g>
	<g>
		<path class="st3" d="M52.88,35.24c-0.28,0-0.57-0.01-0.85-0.03c-0.28-0.02-0.56-0.05-0.84-0.08c-0.27-0.04-0.55-0.08-0.82-0.14
			c-0.27-0.05-0.54-0.12-0.8-0.19c-0.26-0.07-0.52-0.15-0.78-0.24c-0.25-0.09-0.51-0.18-0.76-0.29c-0.25-0.1-0.49-0.22-0.73-0.33
			c-0.24-0.12-0.48-0.25-0.71-0.38c-0.24-0.14-0.47-0.28-0.7-0.44c-0.23-0.15-0.45-0.31-0.67-0.48c-0.22-0.17-0.43-0.34-0.63-0.52
			c-0.2-0.18-0.41-0.37-0.6-0.56c-0.19-0.19-0.38-0.39-0.56-0.6c-0.18-0.2-0.36-0.42-0.52-0.63c-0.17-0.22-0.33-0.44-0.48-0.67
			c-0.15-0.23-0.3-0.46-0.44-0.7c-0.13-0.23-0.26-0.47-0.38-0.71c-0.12-0.24-0.23-0.49-0.33-0.73c-0.1-0.25-0.2-0.51-0.29-0.76
			c-0.09-0.25-0.17-0.52-0.24-0.78c-0.07-0.26-0.14-0.53-0.19-0.8c-0.05-0.27-0.1-0.55-0.14-0.82c-0.04-0.28-0.07-0.56-0.08-0.84
			c-0.02-0.28-0.03-0.57-0.03-0.85c0-0.28,0.01-0.57,0.03-0.85c0.02-0.28,0.05-0.56,0.08-0.84c0.04-0.27,0.08-0.55,0.14-0.82
			c0.05-0.27,0.12-0.54,0.19-0.8c0.07-0.26,0.15-0.53,0.24-0.78c0.09-0.25,0.18-0.51,0.29-0.76c0.1-0.25,0.22-0.49,0.33-0.73
			c0.12-0.24,0.25-0.48,0.38-0.71c0.14-0.24,0.28-0.47,0.44-0.7c0.15-0.23,0.31-0.45,0.48-0.67c0.17-0.22,0.34-0.43,0.52-0.63
			c0.18-0.2,0.37-0.41,0.56-0.6c0.19-0.19,0.39-0.38,0.6-0.56c0.2-0.18,0.42-0.36,0.63-0.52c0.22-0.17,0.44-0.33,0.67-0.48
			c0.23-0.15,0.46-0.3,0.7-0.44c0.23-0.13,0.47-0.26,0.71-0.38c0.24-0.12,0.49-0.23,0.73-0.33c0.25-0.1,0.5-0.2,0.76-0.29
			c0.26-0.09,0.52-0.17,0.78-0.24c0.26-0.07,0.53-0.14,0.8-0.19c0.27-0.05,0.55-0.1,0.82-0.14c0.28-0.04,0.56-0.07,0.84-0.08
			c0.56-0.04,1.14-0.04,1.7,0c0.28,0.02,0.56,0.05,0.84,0.08c0.27,0.04,0.55,0.08,0.82,0.14c0.27,0.05,0.54,0.12,0.8,0.19
			c0.26,0.07,0.52,0.15,0.78,0.24c0.25,0.09,0.51,0.18,0.76,0.29c0.25,0.1,0.49,0.22,0.73,0.33c0.24,0.12,0.48,0.25,0.71,0.38
			c0.24,0.14,0.47,0.28,0.7,0.44c0.23,0.15,0.45,0.31,0.67,0.48c0.22,0.17,0.43,0.34,0.63,0.52c0.2,0.18,0.41,0.37,0.6,0.56
			c0.19,0.19,0.38,0.39,0.56,0.6c0.18,0.21,0.36,0.42,0.52,0.63c0.17,0.22,0.33,0.44,0.48,0.67c0.15,0.23,0.3,0.46,0.44,0.7
			c0.13,0.23,0.26,0.47,0.38,0.71c0.12,0.24,0.23,0.49,0.33,0.73c0.18,0.44-0.02,0.94-0.46,1.12c-0.44,0.18-0.94-0.02-1.12-0.46
			c-0.09-0.21-0.19-0.43-0.29-0.63c-0.1-0.21-0.21-0.41-0.33-0.61c-0.12-0.2-0.24-0.41-0.38-0.6c-0.13-0.19-0.27-0.39-0.41-0.58
			c-0.14-0.19-0.3-0.37-0.45-0.55c-0.16-0.18-0.32-0.35-0.48-0.52c-0.17-0.17-0.34-0.33-0.52-0.48c-0.18-0.16-0.36-0.31-0.55-0.45
			c-0.19-0.14-0.38-0.28-0.58-0.41c-0.2-0.13-0.4-0.26-0.6-0.38c-0.2-0.12-0.4-0.23-0.61-0.33c-0.21-0.1-0.42-0.2-0.63-0.29
			c-0.21-0.09-0.43-0.17-0.65-0.25c-0.22-0.08-0.45-0.15-0.67-0.21c-0.23-0.06-0.46-0.12-0.69-0.16c-0.23-0.05-0.47-0.09-0.71-0.12
			c-0.24-0.03-0.48-0.06-0.72-0.07c-0.49-0.03-0.99-0.03-1.47,0c-0.24,0.02-0.48,0.04-0.72,0.07c-0.24,0.03-0.47,0.07-0.71,0.12
			c-0.23,0.05-0.46,0.1-0.69,0.16c-0.23,0.06-0.45,0.13-0.67,0.21c-0.22,0.08-0.44,0.16-0.65,0.25c-0.21,0.09-0.43,0.19-0.63,0.29
			c-0.21,0.1-0.41,0.21-0.61,0.33c-0.2,0.12-0.41,0.25-0.6,0.38c-0.2,0.13-0.39,0.27-0.58,0.41c-0.19,0.14-0.37,0.3-0.55,0.45
			c-0.18,0.16-0.35,0.32-0.52,0.48c-0.17,0.17-0.33,0.34-0.48,0.52c-0.16,0.18-0.31,0.36-0.45,0.55c-0.14,0.19-0.28,0.38-0.41,0.58
			c-0.13,0.2-0.26,0.4-0.38,0.6c-0.11,0.2-0.23,0.4-0.33,0.61c-0.1,0.21-0.2,0.42-0.29,0.63c-0.09,0.22-0.17,0.44-0.25,0.65
			c-0.08,0.22-0.15,0.45-0.21,0.67c-0.06,0.23-0.12,0.46-0.16,0.69c-0.05,0.23-0.09,0.47-0.12,0.71c-0.03,0.24-0.06,0.48-0.07,0.72
			c-0.02,0.24-0.02,0.49-0.02,0.74c0,0.25,0.01,0.49,0.02,0.74c0.02,0.24,0.04,0.48,0.07,0.72c0.03,0.24,0.07,0.47,0.12,0.71
			c0.05,0.23,0.1,0.46,0.16,0.69c0.06,0.23,0.13,0.45,0.21,0.67c0.07,0.22,0.16,0.44,0.25,0.65c0.09,0.21,0.19,0.43,0.29,0.63
			c0.1,0.21,0.21,0.41,0.33,0.61c0.12,0.21,0.25,0.41,0.38,0.6c0.13,0.2,0.27,0.39,0.41,0.58c0.14,0.19,0.29,0.37,0.45,0.55
			c0.15,0.18,0.32,0.35,0.48,0.52c0.17,0.17,0.34,0.33,0.52,0.48c0.18,0.15,0.36,0.31,0.55,0.45c0.19,0.14,0.38,0.28,0.58,0.41
			c0.2,0.13,0.4,0.26,0.6,0.38c0.2,0.12,0.4,0.23,0.61,0.33c0.21,0.1,0.42,0.2,0.63,0.29c0.21,0.09,0.43,0.17,0.65,0.25
			c0.22,0.08,0.45,0.15,0.67,0.21c0.23,0.06,0.46,0.12,0.69,0.16c0.23,0.05,0.47,0.09,0.71,0.12c0.24,0.03,0.48,0.06,0.72,0.07
			c0.49,0.03,0.99,0.03,1.47,0c0.24-0.02,0.48-0.04,0.72-0.07c0.24-0.03,0.47-0.07,0.71-0.12c0.23-0.05,0.46-0.1,0.69-0.16
			c0.23-0.06,0.45-0.13,0.67-0.21c0.22-0.08,0.44-0.16,0.65-0.25c0.44-0.18,0.94,0.02,1.12,0.46c0.18,0.44-0.02,0.94-0.46,1.12
			c-0.25,0.1-0.5,0.2-0.76,0.29c-0.26,0.09-0.52,0.17-0.78,0.24c-0.26,0.07-0.53,0.14-0.8,0.19c-0.27,0.05-0.55,0.1-0.82,0.14
			c-0.28,0.04-0.56,0.07-0.84,0.08C53.45,35.23,53.17,35.24,52.88,35.24z"/>
	</g>
	<g>
		<path class="st4" d="M52.88,32.43c-0.47,0-0.86-0.38-0.86-0.86s0.38-0.86,0.86-0.86c0.18,0,0.37-0.01,0.55-0.02
			c0.18-0.01,0.36-0.03,0.54-0.05c0.17-0.02,0.35-0.05,0.52-0.09c0.17-0.03,0.34-0.08,0.51-0.12c0.17-0.05,0.33-0.1,0.5-0.15
			c0.16-0.06,0.33-0.12,0.48-0.18c0.16-0.07,0.32-0.14,0.47-0.21c0.15-0.08,0.3-0.16,0.45-0.24c0.15-0.09,0.3-0.18,0.45-0.28
			c0.14-0.1,0.29-0.2,0.43-0.31c0.14-0.11,0.28-0.22,0.41-0.33c0.13-0.12,0.26-0.24,0.38-0.36c0.12-0.12,0.24-0.25,0.36-0.38
			c0.12-0.13,0.23-0.27,0.33-0.41c0.11-0.14,0.21-0.28,0.31-0.43c0.1-0.15,0.19-0.3,0.28-0.45c0.08-0.15,0.17-0.3,0.24-0.45
			c0.08-0.15,0.15-0.31,0.21-0.47c0.07-0.16,0.13-0.32,0.18-0.48c0.06-0.16,0.11-0.33,0.15-0.5c0.05-0.17,0.09-0.34,0.12-0.51
			c0.04-0.17,0.06-0.35,0.09-0.52c0.02-0.18,0.04-0.36,0.05-0.54c0.01-0.18,0.02-0.36,0.02-0.55s-0.01-0.37-0.02-0.55
			c-0.01-0.18-0.03-0.36-0.05-0.54c-0.02-0.17-0.05-0.35-0.09-0.52c-0.03-0.17-0.08-0.34-0.12-0.51c-0.05-0.17-0.1-0.34-0.15-0.5
			c-0.06-0.16-0.12-0.33-0.18-0.48c-0.07-0.16-0.14-0.31-0.21-0.47c-0.08-0.15-0.16-0.31-0.24-0.45c-0.09-0.15-0.18-0.3-0.28-0.45
			c-0.1-0.15-0.2-0.29-0.31-0.43c-0.11-0.14-0.22-0.27-0.33-0.41c-0.12-0.13-0.24-0.26-0.36-0.38c-0.12-0.12-0.25-0.24-0.38-0.36
			c-0.13-0.12-0.27-0.23-0.41-0.33c-0.14-0.11-0.28-0.21-0.43-0.31c-0.15-0.1-0.3-0.19-0.45-0.28c-0.15-0.09-0.3-0.17-0.45-0.24
			c-0.15-0.08-0.31-0.15-0.47-0.21c-0.16-0.07-0.32-0.13-0.48-0.18c-0.16-0.06-0.33-0.11-0.5-0.15c-0.17-0.05-0.34-0.09-0.51-0.12
			c-0.17-0.03-0.35-0.06-0.52-0.09c-0.18-0.02-0.36-0.04-0.54-0.05c-0.36-0.02-0.73-0.02-1.09,0c-0.18,0.01-0.36,0.03-0.54,0.05
			c-0.17,0.02-0.35,0.05-0.52,0.09c-0.17,0.03-0.34,0.08-0.51,0.12c-0.17,0.05-0.33,0.1-0.5,0.15c-0.16,0.06-0.33,0.12-0.48,0.18
			c-0.16,0.07-0.32,0.14-0.47,0.21c-0.15,0.08-0.3,0.16-0.45,0.24c-0.15,0.09-0.3,0.18-0.45,0.28c-0.14,0.1-0.29,0.2-0.43,0.31
			c-0.14,0.11-0.28,0.22-0.41,0.33c-0.13,0.12-0.26,0.24-0.38,0.36c-0.12,0.12-0.24,0.25-0.36,0.38c-0.11,0.13-0.23,0.27-0.33,0.41
			c-0.11,0.14-0.21,0.28-0.31,0.43c-0.1,0.15-0.19,0.3-0.28,0.45c-0.08,0.15-0.17,0.3-0.24,0.45c-0.08,0.15-0.15,0.31-0.21,0.47
			c-0.07,0.16-0.13,0.32-0.18,0.48c-0.06,0.16-0.11,0.33-0.15,0.5c-0.05,0.17-0.09,0.34-0.12,0.51c-0.04,0.17-0.06,0.35-0.09,0.52
			c-0.02,0.18-0.04,0.36-0.05,0.54c-0.01,0.18-0.02,0.37-0.02,0.55s0.01,0.36,0.02,0.55c0.01,0.18,0.03,0.36,0.05,0.54
			c0.02,0.17,0.05,0.35,0.09,0.52c0.03,0.17,0.08,0.34,0.12,0.51c0.05,0.17,0.1,0.33,0.15,0.5c0.06,0.16,0.12,0.33,0.18,0.48
			c0.07,0.16,0.14,0.31,0.21,0.47c0.21,0.43,0.04,0.94-0.39,1.15c-0.43,0.21-0.94,0.04-1.15-0.39c-0.09-0.19-0.18-0.38-0.26-0.57
			c-0.08-0.19-0.16-0.39-0.22-0.59c-0.07-0.2-0.13-0.4-0.19-0.61c-0.06-0.2-0.11-0.41-0.15-0.62c-0.04-0.21-0.08-0.43-0.11-0.64
			c-0.03-0.21-0.05-0.43-0.07-0.65c-0.01-0.22-0.02-0.44-0.02-0.66s0.01-0.44,0.02-0.66c0.01-0.22,0.04-0.43,0.07-0.65
			c0.03-0.21,0.06-0.42,0.11-0.64c0.04-0.21,0.09-0.42,0.15-0.62c0.06-0.2,0.12-0.41,0.19-0.61c0.07-0.2,0.14-0.4,0.22-0.59
			c0.08-0.19,0.17-0.38,0.26-0.57c0.09-0.19,0.19-0.37,0.29-0.55c0.11-0.18,0.22-0.37,0.34-0.54c0.12-0.18,0.24-0.35,0.37-0.52
			c0.13-0.17,0.26-0.33,0.4-0.49c0.14-0.16,0.29-0.32,0.44-0.47c0.15-0.15,0.31-0.3,0.46-0.44c0.16-0.14,0.32-0.27,0.49-0.4
			c0.17-0.13,0.34-0.26,0.52-0.37c0.18-0.12,0.36-0.23,0.54-0.34c0.18-0.1,0.36-0.2,0.55-0.29c0.19-0.09,0.38-0.18,0.57-0.26
			c0.19-0.08,0.39-0.16,0.59-0.22c0.2-0.07,0.4-0.13,0.61-0.19c0.21-0.06,0.41-0.11,0.62-0.15c0.21-0.04,0.42-0.08,0.64-0.11
			c0.21-0.03,0.43-0.05,0.65-0.07c0.44-0.03,0.88-0.03,1.32,0c0.22,0.01,0.43,0.04,0.65,0.07c0.21,0.03,0.43,0.06,0.64,0.11
			c0.21,0.04,0.42,0.09,0.62,0.15c0.2,0.06,0.41,0.12,0.61,0.19c0.2,0.07,0.4,0.14,0.59,0.22c0.19,0.08,0.38,0.17,0.57,0.26
			c0.19,0.09,0.37,0.19,0.55,0.29c0.18,0.11,0.37,0.22,0.54,0.34c0.18,0.12,0.35,0.24,0.52,0.37c0.17,0.13,0.33,0.27,0.49,0.4
			c0.16,0.14,0.32,0.29,0.46,0.44c0.15,0.15,0.3,0.3,0.44,0.46c0.14,0.16,0.28,0.33,0.41,0.49c0.13,0.17,0.25,0.34,0.37,0.52
			c0.12,0.18,0.23,0.36,0.34,0.54c0.1,0.18,0.2,0.36,0.29,0.55c0.09,0.19,0.18,0.38,0.26,0.57c0.08,0.19,0.16,0.39,0.22,0.59
			c0.07,0.2,0.13,0.4,0.19,0.61c0.06,0.2,0.11,0.41,0.15,0.62c0.04,0.21,0.08,0.43,0.11,0.64c0.03,0.21,0.05,0.43,0.07,0.65
			c0.01,0.22,0.02,0.44,0.02,0.66s-0.01,0.44-0.02,0.66c-0.01,0.22-0.04,0.43-0.07,0.65c-0.03,0.21-0.06,0.42-0.11,0.64
			c-0.04,0.21-0.09,0.42-0.15,0.62c-0.06,0.2-0.12,0.41-0.19,0.61c-0.07,0.2-0.14,0.39-0.22,0.59c-0.08,0.19-0.17,0.38-0.26,0.57
			c-0.09,0.19-0.19,0.37-0.29,0.55c-0.11,0.18-0.22,0.37-0.34,0.54c-0.12,0.18-0.24,0.35-0.37,0.52c-0.13,0.17-0.26,0.33-0.4,0.49
			c-0.14,0.16-0.29,0.32-0.44,0.47c-0.15,0.15-0.31,0.3-0.46,0.44c-0.16,0.14-0.33,0.28-0.49,0.41c-0.17,0.13-0.34,0.25-0.52,0.37
			c-0.18,0.12-0.36,0.23-0.54,0.34c-0.18,0.1-0.36,0.2-0.55,0.29c-0.19,0.09-0.38,0.18-0.57,0.26c-0.19,0.08-0.39,0.16-0.59,0.22
			c-0.2,0.07-0.4,0.13-0.61,0.19c-0.21,0.06-0.41,0.11-0.62,0.15c-0.21,0.04-0.42,0.08-0.64,0.11c-0.21,0.03-0.43,0.05-0.65,0.07
			C53.32,32.42,53.1,32.43,52.88,32.43z"/>
	</g>
	<g>
		<path class="st0" d="M87.32,17.48h-3.95v-2.12h10.34v2.12H89.7v11.84h-2.38V17.48z"/>
		<path class="st0" d="M92.61,24.54c0-2.83,2.01-4.96,5.03-4.96c2.95,0,5.03,2.01,5.03,4.96c0,2.91-2.08,4.94-5.03,4.94
			C94.61,29.47,92.61,27.35,92.61,24.54z M100.44,24.54c0-1.77-1.22-2.97-2.79-2.97c-1.67,0-2.79,1.3-2.79,2.97
			c0,1.63,1.14,2.93,2.79,2.93C99.2,27.47,100.44,26.27,100.44,24.54z"/>
		<path class="st0" d="M104.19,14.84h2.2v9.3l0.04,0.02l3.89-4.44h2.62l-3.46,3.85l3.52,5.74h-2.48l-2.58-4.23l-1.55,1.69v2.54h-2.2
			V14.84z"/>
		<path class="st0" d="M117.78,28.79l-3.93-9.07h2.36l2.64,6.43h0.04l2.46-6.43h2.26l-5.27,13.49h-2.28L117.78,28.79z"/>
		<path class="st0" d="M123.58,24.54c0-2.83,2.01-4.96,5.03-4.96c2.95,0,5.03,2.01,5.03,4.96c0,2.91-2.08,4.94-5.03,4.94
			C125.59,29.47,123.58,27.35,123.58,24.54z M131.41,24.54c0-1.77-1.22-2.97-2.79-2.97c-1.67,0-2.79,1.3-2.79,2.97
			c0,1.63,1.14,2.93,2.79,2.93C130.17,27.47,131.41,26.27,131.41,24.54z"/>
		<path class="st0" d="M138.84,15.35h2.54l2.99,10.07h0.04l2.73-10.07h2.52l2.71,10.05h0.04l3.01-10.05h2.52l-4.42,13.96h-2.22
			l-2.85-10.5h-0.04l-2.91,10.5h-2.22L138.84,15.35z"/>
		<path class="st0" d="M166.62,25.25h-7c0.28,1.4,1.32,2.22,2.81,2.22c1.14,0,1.93-0.51,2.42-1.12l1.53,1.32
			c-0.81,1.04-2.01,1.81-4.07,1.81c-2.91,0-4.98-1.95-4.98-4.96c0-2.95,2.01-4.94,4.82-4.94c2.69,0,4.52,2.03,4.52,4.82
			C166.68,24.75,166.64,25.09,166.62,25.25z M159.66,23.51h4.8c-0.28-1.16-1.06-1.95-2.32-1.95
			C160.92,21.57,159.98,22.26,159.66,23.51z"/>
		<path class="st0" d="M167.37,28.08l1.1-1.65c0.77,0.75,1.59,1.12,2.77,1.12c0.85,0,1.34-0.37,1.34-0.94
			c0-0.49-0.63-0.73-1.89-1.16c-1.57-0.55-2.93-1.26-2.93-3.15c0-1.57,1.42-2.71,3.38-2.71c1.22,0,2.32,0.33,3.38,1.2l-1.1,1.73
			c-0.77-0.73-1.65-1.02-2.4-1.02c-0.43,0-1.04,0.24-1.04,0.83c0,0.47,0.59,0.81,1.51,1.16c2.05,0.81,3.32,1.18,3.32,3.09
			c0,1.61-1.14,2.91-3.58,2.91C169.69,29.47,168.37,28.96,167.37,28.08z"/>
		<path class="st0" d="M176.4,26.29v-4.7h-1.18v-1.87h1.18v-3.19l2.2-0.24v3.42h2.81v1.87h-2.81v4.48c0,0.98,0.29,1.34,0.92,1.34
			c0.37,0,0.9-0.14,1.42-0.41l0.57,1.91c-0.57,0.31-1.18,0.57-2.44,0.57C177.42,29.47,176.4,28.43,176.4,26.29z"/>
	</g>
</g>
<g>
</g>
<g>
</g>
<g>
</g>
<g>
</g>
<g>
</g>
<g>
</g>
<g>
</g>
<g>
</g>
<g>
</g>
<g>
</g>
<g>
</g>
<g>
</g>
<g>
</g>
<g>
</g>
<g>
</g>
</svg>
